<svg width="56" height="55" viewBox="0 0 56 55" fill="none" xmlns="http://www.w3.org/2000/svg">
<path d="M27.9472 18.8076C22.8273 18.8076 18.649 22.8553 18.649 27.8153C18.649 32.7753 22.8273 36.823 27.9472 36.823C33.0672 36.823 37.2455 32.7753 37.2455 27.8153C37.2455 22.8553 33.0672 18.8076 27.9472 18.8076ZM55.8351 27.8153C55.8351 24.0852 55.87 20.3889 55.6537 16.6655C55.4375 12.3407 54.4191 8.50247 51.1546 5.33998C47.8831 2.17073 43.928 1.1909 39.4637 0.981415C35.6133 0.771933 31.7977 0.805721 27.9542 0.805721C24.1038 0.805721 20.2882 0.771933 16.4447 0.981415C11.9805 1.1909 8.0184 2.17749 4.75389 5.33998C1.4824 8.50923 0.470964 12.3407 0.254725 16.6655C0.0384865 20.3956 0.0733639 24.0919 0.0733639 27.8153C0.0733639 31.5387 0.0384865 35.2418 0.254725 38.9651C0.470964 43.2899 1.48938 47.1281 4.75389 50.2906C8.02537 53.4599 11.9805 54.4397 16.4447 54.6492C20.2952 54.8587 24.1107 54.8249 27.9542 54.8249C31.8047 54.8249 35.6202 54.8587 39.4637 54.6492C43.928 54.4397 47.89 53.4531 51.1546 50.2906C54.426 47.1214 55.4375 43.2899 55.6537 38.9651C55.8769 35.2418 55.8351 31.5454 55.8351 27.8153ZM27.9472 41.6749C20.0301 41.6749 13.6406 35.485 13.6406 27.8153C13.6406 20.1456 20.0301 13.9557 27.9472 13.9557C35.8644 13.9557 42.2539 20.1456 42.2539 27.8153C42.2539 35.485 35.8644 41.6749 27.9472 41.6749ZM42.8398 16.6249C40.9913 16.6249 39.4986 15.1788 39.4986 13.3881C39.4986 11.5974 40.9913 10.1513 42.8398 10.1513C44.6883 10.1513 46.1811 11.5974 46.1811 13.3881C46.1816 13.8133 46.0956 14.2345 45.9278 14.6274C45.7601 15.0204 45.514 15.3774 45.2037 15.6781C44.8933 15.9788 44.5247 16.2172 44.1191 16.3796C43.7135 16.5421 43.2788 16.6255 42.8398 16.6249Z" fill="#9B9B9B"/>
</svg>
