<svg xmlns="http://www.w3.org/2000/svg" xmlns:xlink="http://www.w3.org/1999/xlink" width="446.263" height="67.617" viewBox="0 0 446.263 67.617">
  <defs>
    <linearGradient id="linear-gradient" y1="0.996" x2="1.592" gradientUnits="objectBoundingBox">
      <stop offset="0" stop-color="#d5b36d"/>
      <stop offset="0.228" stop-color="#fcf6be"/>
      <stop offset="0.414" stop-color="#d5aa47"/>
      <stop offset="0.586" stop-color="#ad822d"/>
      <stop offset="0.772" stop-color="#cd9d2b"/>
      <stop offset="1" stop-color="#b3892e"/>
    </linearGradient>
    <linearGradient id="linear-gradient-2" x2="0.745" y2="0.695" gradientUnits="objectBoundingBox">
      <stop offset="0" stop-color="#f7d68e"/>
      <stop offset="0.228" stop-color="#b89448"/>
      <stop offset="0.414" stop-color="#8e5a24"/>
      <stop offset="0.586" stop-color="#a7732a"/>
      <stop offset="0.772" stop-color="#b08a3c"/>
      <stop offset="1" stop-color="#deb86b"/>
    </linearGradient>
    <linearGradient id="linear-gradient-3" y1="1.435" x2="1.765" xlink:href="#linear-gradient"/>
    <linearGradient id="linear-gradient-4" x1="1.169" y1="0.996" x2="0" xlink:href="#linear-gradient"/>
    <linearGradient id="linear-gradient-5" x1="1.933" x2="0.255" y2="0.695" xlink:href="#linear-gradient-2"/>
    <linearGradient id="linear-gradient-6" x1="1.429" y1="1.435" x2="0" xlink:href="#linear-gradient"/>
  </defs>
  <g id="Group_3" data-name="Group 3" transform="translate(-71.735 -157)">
    <g id="Frame" transform="translate(76.735 72)">
      <g id="Group" transform="translate(-5 85)">
        <g id="Group-2" data-name="Group" transform="translate(46.956)">
          <path id="Vector" d="M36.694,0s-5.742,3.314-5.05,20.44S18.435,34.261,12.46,37.111,1.318,47.849,4.418,53.9C4.426,53.9-17.616,18.874,36.694,0Z" transform="translate(0)" fill="url(#linear-gradient)"/>
          <path id="Vector-2" data-name="Vector" d="M13.162,0A16.746,16.746,0,0,0,8.971,1.16C3,4.018-2.171,11.9.929,17.946c7.717,13.762,23.142,14.69,25.8,9.967C29.363,23.249,26.763,8.534,13.162,0Z" transform="translate(4.856 37.127)" fill="url(#linear-gradient-2)"/>
          <path id="Vector-3" data-name="Vector" d="M0,8.936S2.192-.675,6.859.038s2.733,5.742-.083,6.33S1.208,6.177,0,8.936Z" transform="translate(33.894 0.095)" fill="url(#linear-gradient-3)"/>
        </g>
        <g id="Group-3" data-name="Group" transform="translate(0)">
          <path id="Vector-4" data-name="Vector" d="M0,0S5.742,3.314,5.05,20.44s13.209,13.82,19.184,16.67S35.376,47.849,32.276,53.9C32.268,53.9,54.31,18.874,0,0Z" transform="translate(6.872)" fill="url(#linear-gradient-4)"/>
          <path id="Vector-5" data-name="Vector" d="M14.488,0A16.746,16.746,0,0,1,18.68,1.16C24.655,4.018,29.822,11.9,26.722,17.946,19,31.7,3.579,32.637.913,27.906-1.712,23.249.888,8.534,14.488,0Z" transform="translate(11.06 37.127)" fill="url(#linear-gradient-5)"/>
          <path id="Vector-6" data-name="Vector" d="M9.673,8.936S7.481-.675,2.814.038.081,5.771,2.9,6.368,8.464,6.177,9.673,8.936Z" transform="translate(0 0.095)" fill="url(#linear-gradient-6)"/>
        </g>
      </g>
    </g>
    <g id="Group_2" data-name="Group 2" transform="translate(84.398 163.4)">
      <path id="Path_2" data-name="Path 2" d="M103.624,19.153l3.451.055a9.014,9.014,0,0,1,1.616.164,3.363,3.363,0,0,1,1.013.3,1.281,1.281,0,0,1,.548.466,1.343,1.343,0,0,1,.192.575l.027.3a2.237,2.237,0,0,0,.055.383.184.184,0,0,0,.164.082q.192,0,.192-.356V20.66q.027-.383.027-.849.027-.466.027-.931.027-.466.027-.767a.713.713,0,0,0-.027-.219.1.1,0,0,0-.11-.11,1.161,1.161,0,0,0-.274.055q-.192.027-.493.082-.329.055-.822.11-.466.027-1.123.027H97.845q-.246,0-.9-.027-.657-.055-1.26-.11a2.467,2.467,0,0,1-.822-.192.882.882,0,0,0-.383-.137q-.082,0-.164.192a3.445,3.445,0,0,1-.11.329q-.027.082-.137.493-.082.411-.192.9t-.192.931a3.714,3.714,0,0,0-.082.52q0,.247.137.247.164,0,.274-.274.055-.137.137-.3.11-.192.329-.548a1.655,1.655,0,0,1,.383-.411,1.515,1.515,0,0,1,.548-.247,4.014,4.014,0,0,1,.767-.164,9.519,9.519,0,0,1,1.1-.055l4.054-.055V30.739q0,1.972-.027,3.533a20.534,20.534,0,0,1-.11,2.41,4.334,4.334,0,0,1-.247,1.013.689.689,0,0,1-.548.493,2.726,2.726,0,0,1-.411.082,3.323,3.323,0,0,1-.411.027q-.219,0-.219.164,0,.219.438.219.3,0,.739-.027.438,0,.849-.027.411,0,.712-.027h.74q.329.027.794.027.493.027,1.068.027.575.027,1.15.027.438,0,.438-.219,0-.164-.219-.164-.192,0-.575-.027a6.455,6.455,0,0,1-.657-.082.959.959,0,0,1-.822-.493,3.055,3.055,0,0,1-.246-1.013,23.991,23.991,0,0,1-.137-2.41V19.153Zm13.1,11.586q0,1.972-.027,3.533a20.537,20.537,0,0,1-.11,2.41,4.335,4.335,0,0,1-.247,1.013.689.689,0,0,1-.548.493,2.726,2.726,0,0,1-.411.082,3.323,3.323,0,0,1-.411.027q-.219,0-.219.164,0,.219.438.219.3,0,.739-.027.438,0,.849-.027.411,0,.685-.027h.657q.329.027.794.027.493.027,1.068.027.575.027,1.15.027.438,0,.438-.219,0-.164-.219-.164-.192,0-.575-.027a6.455,6.455,0,0,1-.657-.082.959.959,0,0,1-.822-.493,3.055,3.055,0,0,1-.246-1.013,23.991,23.991,0,0,1-.137-2.41V30.081q0-.219.192-.219l3.369.055a.5.5,0,0,1,.356.164l.52.74q.356.438.739.986.411.548.849,1.15t.876,1.178q1.178,1.561,2,2.575a5.817,5.817,0,0,0,1.7,1.452,3.458,3.458,0,0,0,1.15.411,11.043,11.043,0,0,0,1.78.11h1.945a1.627,1.627,0,0,0,.52-.055.152.152,0,0,0,.137-.164q0-.164-.247-.164h-.411q-.274-.027-.657-.082a6.332,6.332,0,0,1-1.369-.438,6.423,6.423,0,0,1-1.972-1.534q-1.205-1.287-2.6-3.068L124.7,29.232A11.3,11.3,0,0,0,127.272,26a7.184,7.184,0,0,0,.74-3.095,3.82,3.82,0,0,0-.219-1.315,4.427,4.427,0,0,0-.493-1.068,3.942,3.942,0,0,0-.6-.794,5.011,5.011,0,0,0-.575-.548,5.372,5.372,0,0,0-2.41-.986,15.479,15.479,0,0,0-2.6-.219q-.329,0-.822.027-.493,0-1.013.027-.493,0-.9.027h-.876q-.3-.027-.767-.027-.438-.027-.959-.027-.52-.027-.986-.027-.438,0-.438.219,0,.164.219.164.192,0,.466.027a1.54,1.54,0,0,1,.466.055,1.3,1.3,0,0,1,.9.493A2.441,2.441,0,0,1,116.673,20q.027.329.027.712.027.356.027.986v9.038Zm2.191-11.394a.319.319,0,0,1,.219-.329,6.018,6.018,0,0,1,.712-.11,10.268,10.268,0,0,1,1.123-.055,4.363,4.363,0,0,1,3.478,1.452,5.942,5.942,0,0,1,1.26,4.026,6.451,6.451,0,0,1-.493,2.657,3.567,3.567,0,0,1-1.178,1.561,2.637,2.637,0,0,1-1.013.438,7.027,7.027,0,0,1-1.041.082,13.688,13.688,0,0,1-1.753-.11,3.324,3.324,0,0,1-1.123-.329.355.355,0,0,1-.192-.329Zm16.318,16.324a7.84,7.84,0,0,1-.876,1.753,1.962,1.962,0,0,1-1.424.822q-.164.027-.411.055h-.383q-.247,0-.246.164,0,.219.52.219.493,0,.986-.027.493,0,.931-.027.438,0,.74-.027h.794q.274.027.575.027.3.027.63.027.329.027.575.027.411,0,.411-.219,0-.164-.274-.164h-.274a1.49,1.49,0,0,1-.712-.192.648.648,0,0,1-.329-.6,5.586,5.586,0,0,1,.383-1.835l1.643-4.848a.286.286,0,0,1,.274-.219h5.889a.263.263,0,0,1,.246.164l2.547,6.738a.683.683,0,0,1,.055.52.426.426,0,0,1-.219.219q-.192.055-.192.192t.219.164q.219,0,.6.027.712.027,1.4.027.712.027,1.287.027h1.616a1.213,1.213,0,0,0,.383-.055q.164-.027.164-.164,0-.164-.274-.164-.219,0-.52-.027a2.382,2.382,0,0,1-.575-.137,2.459,2.459,0,0,1-.493-.192,2.32,2.32,0,0,1-.548-.466,8.159,8.159,0,0,1-.63-.9,11.645,11.645,0,0,1-.685-1.479q-.411-1.041-1.041-2.6-.6-1.561-1.287-3.287-.657-1.753-1.342-3.533t-1.26-3.259q-.548-1.506-.959-2.547-.383-1.041-.493-1.287a5.345,5.345,0,0,0-.356-.794q-.11-.192-.246-.192t-.247.192a7.082,7.082,0,0,0-.356.876Zm3.834-6.053q-.164,0-.082-.192l2.41-7.4q.192-.6.411,0l2.6,7.4q.055.192-.11.192Zm18-7.778q.329.383,1.041,1.178.712.767,1.671,1.835t2.082,2.328q1.15,1.233,2.355,2.52,1.1,1.178,2.3,2.438t2.246,2.355q1.041,1.068,1.753,1.808.739.712.849.822.548.548.876.9.356.329.575.52a1.85,1.85,0,0,0,.329.246.468.468,0,0,0,.219.082.11.11,0,0,0,.11-.055.47.47,0,0,0,.082-.246,4.426,4.426,0,0,0,.027-.575q.027-.383.027-1.068l.055-16.05a6.506,6.506,0,0,1,.164-1.753,1,1,0,0,1,.849-.685,1.9,1.9,0,0,1,.383-.055,1.721,1.721,0,0,1,.274-.027q.3,0,.3-.192t-.493-.192q-.849,0-1.479.055-.63.027-.849.027h-.411q-.274-.027-.685-.027Q171.34,18,170.875,18q-.438-.027-.9-.027-.548,0-.548.192t.219.192q.164,0,.548.027a5.548,5.548,0,0,1,.794.11,1.1,1.1,0,0,1,.822.712,5.993,5.993,0,0,1,.246,1.89l.3,13.914q-.329-.329-1.013-1.068-.685-.767-1.589-1.753t-1.945-2.109q-1.013-1.123-2.027-2.219-1.589-1.7-3.095-3.314-1.479-1.616-2.684-2.9l-2-2.136q-.767-.876-.931-1.041-.219-.219-.52-.548-.274-.329-.438-.329t-.247.3a6.633,6.633,0,0,0-.055,1.068l-.027,15.694a13.852,13.852,0,0,1-.164,2.6q-.137.739-.657.876a2.424,2.424,0,0,1-.63.137q-.329.027-.493.027-.219,0-.219.164,0,.219.438.219.931,0,1.671-.055.767-.027.959-.027t.959.027q.767.055,1.945.055.493,0,.493-.219,0-.164-.219-.164-.192,0-.6-.027a3.761,3.761,0,0,1-.767-.137,1.089,1.089,0,0,1-.466-.274,1.555,1.555,0,0,1-.329-.548,7.488,7.488,0,0,1-.192-.931q-.055-.575-.082-1.424ZM184.55,39.065a8.786,8.786,0,0,0,2.191-.274,5.364,5.364,0,0,0,1.945-.876,4.73,4.73,0,0,0,1.15-1.1,5.506,5.506,0,0,0,.712-1.26,4.7,4.7,0,0,0,.356-1.205,5.393,5.393,0,0,0,.11-.986,7.181,7.181,0,0,0-.164-1.561,4.653,4.653,0,0,0-.63-1.506,8.158,8.158,0,0,0-1.233-1.589,18.3,18.3,0,0,0-1.972-1.78l-.767-.6q-.986-.767-1.643-1.369a8.907,8.907,0,0,1-1.013-1.123,3.7,3.7,0,0,1-.548-1.013,4.288,4.288,0,0,1-.137-1.1,2.9,2.9,0,0,1,.959-2.328,3.566,3.566,0,0,1,2.41-.849,5.436,5.436,0,0,1,1.561.192,3.536,3.536,0,0,1,1.013.411,2.176,2.176,0,0,1,.6.493A2.579,2.579,0,0,1,189.7,20a2,2,0,0,1,.219.685,5.551,5.551,0,0,1,.137.685q.027.164.055.274.027.082.164.082.192,0,.192-.63,0-1.4.055-2.082.055-.712.055-.822,0-.192-.274-.192a3.141,3.141,0,0,1-.383-.027q-.192-.027-.575-.11a6.866,6.866,0,0,0-1.15-.192,10.46,10.46,0,0,0-1.4-.082,7.255,7.255,0,0,0-2.355.356,5.155,5.155,0,0,0-1.78,1.013,4.629,4.629,0,0,0-1.15,1.561,5.069,5.069,0,0,0-.383,2,7.105,7.105,0,0,0,.137,1.4,6.474,6.474,0,0,0,.548,1.4,9.029,9.029,0,0,0,1.1,1.479,16.355,16.355,0,0,0,1.78,1.671l1.232,1.013q.876.74,1.479,1.342a5.928,5.928,0,0,1,.959,1.15,3.692,3.692,0,0,1,.548,1.15,4.682,4.682,0,0,1,.164,1.287,3.721,3.721,0,0,1-.247,1.315,3.469,3.469,0,0,1-.739,1.178,3.7,3.7,0,0,1-1.205.822,4.216,4.216,0,0,1-1.725.329,6.562,6.562,0,0,1-1.342-.137,4.835,4.835,0,0,1-1.233-.493,3.178,3.178,0,0,1-.931-.849,3.57,3.57,0,0,1-.548-1.315q-.055-.3-.082-.548v-.466q0-.3-.192-.3t-.219.438q-.027.329-.082,1.1t-.055,1.808a3.217,3.217,0,0,0,.055.739.608.608,0,0,0,.356.3,6.769,6.769,0,0,0,1.78.575A10.854,10.854,0,0,0,184.55,39.065Zm24.527,0a8.786,8.786,0,0,0,2.191-.274,5.364,5.364,0,0,0,1.945-.876,4.73,4.73,0,0,0,1.15-1.1,5.506,5.506,0,0,0,.712-1.26,4.7,4.7,0,0,0,.356-1.205,5.393,5.393,0,0,0,.11-.986,7.181,7.181,0,0,0-.164-1.561,4.653,4.653,0,0,0-.63-1.506,8.155,8.155,0,0,0-1.233-1.589,18.294,18.294,0,0,0-1.972-1.78l-.767-.6q-.986-.767-1.643-1.369a8.906,8.906,0,0,1-1.013-1.123,3.7,3.7,0,0,1-.548-1.013,4.29,4.29,0,0,1-.137-1.1,2.9,2.9,0,0,1,.959-2.328,3.566,3.566,0,0,1,2.41-.849,5.436,5.436,0,0,1,1.561.192,3.536,3.536,0,0,1,1.013.411,2.176,2.176,0,0,1,.6.493,2.581,2.581,0,0,1,.247.356,2,2,0,0,1,.219.685,5.559,5.559,0,0,1,.137.685q.027.164.055.274.027.082.164.082.192,0,.192-.63,0-1.4.055-2.082.055-.712.055-.822,0-.192-.274-.192a3.141,3.141,0,0,1-.383-.027q-.192-.027-.575-.11a6.867,6.867,0,0,0-1.15-.192,10.46,10.46,0,0,0-1.4-.082,7.254,7.254,0,0,0-2.355.356,5.154,5.154,0,0,0-1.78,1.013,4.629,4.629,0,0,0-1.15,1.561,5.069,5.069,0,0,0-.383,2,7.1,7.1,0,0,0,.137,1.4,6.473,6.473,0,0,0,.548,1.4,9.03,9.03,0,0,0,1.1,1.479,16.358,16.358,0,0,0,1.78,1.671l1.233,1.013q.876.74,1.479,1.342a5.927,5.927,0,0,1,.959,1.15,3.693,3.693,0,0,1,.548,1.15,4.683,4.683,0,0,1,.164,1.287,3.721,3.721,0,0,1-.247,1.315,3.469,3.469,0,0,1-.739,1.178,3.7,3.7,0,0,1-1.205.822,4.216,4.216,0,0,1-1.726.329,6.562,6.562,0,0,1-1.342-.137,4.834,4.834,0,0,1-1.232-.493,3.178,3.178,0,0,1-.931-.849,3.57,3.57,0,0,1-.548-1.315q-.055-.3-.082-.548v-.466q0-.3-.192-.3t-.219.438q-.027.329-.082,1.1T205,37.285a3.218,3.218,0,0,0,.055.739.608.608,0,0,0,.356.3,6.768,6.768,0,0,0,1.78.575A10.855,10.855,0,0,0,209.077,39.065Zm27.78-11.257V23.4q.027-.329.055-.6a2.7,2.7,0,0,1,.192-.9.941.941,0,0,1,.63-.383,1.5,1.5,0,0,1,.329-.055h.274q.219,0,.219-.192t-.411-.192q-.274,0-.657.027h-.767q-.356,0-.63.027h-.657q-.274-.027-.685-.027h-.876q-.438-.027-.849-.027-.383,0-.383.192a.169.169,0,0,0,.192.192,3.839,3.839,0,0,1,.411.027,2.269,2.269,0,0,1,.411.027q.6.082.74.383a2.41,2.41,0,0,1,.219.9v.6q.027.3.027.849.027.548.027,1.424v2.684a.121.121,0,0,1-.137.137H224.477a.121.121,0,0,1-.137-.137V23.4q.027-.329.027-.6a2.7,2.7,0,0,1,.192-.9.965.965,0,0,1,.657-.383,1.5,1.5,0,0,1,.329-.055h.274a.169.169,0,0,0,.192-.192q0-.192-.383-.192-.274,0-.685.027h-.767q-.356,0-.63.027h-.657q-.274-.027-.685-.027h-.849q-.466-.027-.876-.027-.383,0-.383.192a.169.169,0,0,0,.192.192,3.84,3.84,0,0,1,.411.027,2.269,2.269,0,0,1,.411.027.962.962,0,0,1,.767.383,2.41,2.41,0,0,1,.219.9q.027.274.027.6.027.3.027.849v7.669q0,1.7-.027,3.013a14.22,14.22,0,0,1-.11,2.027,5.438,5.438,0,0,1-.192.849.533.533,0,0,1-.438.383,2.008,2.008,0,0,1-.383.082,2.529,2.529,0,0,1-.356.027.169.169,0,0,0-.192.192q0,.192.383.192.274,0,.657-.027.411,0,.767-.027.383,0,.657-.027h.63q.3.027.712.027.438.027.959.027.52.027,1.013.027.383,0,.383-.192a.169.169,0,0,0-.192-.192q-.164,0-.493-.027a5.351,5.351,0,0,1-.6-.082.817.817,0,0,1-.685-.383,3.083,3.083,0,0,1-.192-.849q-.082-.712-.11-2V29.643a.121.121,0,0,1,.137-.137h10.052a.121.121,0,0,1,.137.137v2.328q0,1.7-.027,2.985a18.235,18.235,0,0,1-.082,1.972,4.116,4.116,0,0,1-.164.849.609.609,0,0,1-.493.411,2.036,2.036,0,0,1-.356.082,2.529,2.529,0,0,1-.356.027.169.169,0,0,0-.192.192q0,.192.383.192.274,0,.657-.027.383,0,.74-.027.383,0,.657-.027h.657q.3.027.712.027.438.027.931.027.52.027,1.013.027.411,0,.411-.192t-.219-.192q-.137,0-.493-.027a4.344,4.344,0,0,1-.575-.082.817.817,0,0,1-.685-.383,3.082,3.082,0,0,1-.192-.849q-.082-.712-.11-2.027t-.027-3.013Zm5.744,2.027a10.1,10.1,0,0,0,.548,3.2,8.587,8.587,0,0,0,4.629,5.122,10.062,10.062,0,0,0,4.245.822,10.186,10.186,0,0,0,3.944-.74,9.332,9.332,0,0,0,3.068-2.054,9.007,9.007,0,0,0,1.945-3.013,9.731,9.731,0,0,0,.712-3.7,8.657,8.657,0,0,0-.739-3.643,7.707,7.707,0,0,0-2-2.739,8.507,8.507,0,0,0-3.013-1.753,11.551,11.551,0,0,0-3.78-.6,9.515,9.515,0,0,0-4.3.9,9.121,9.121,0,0,0-2.985,2.246,9.315,9.315,0,0,0-1.726,2.958A9.179,9.179,0,0,0,242.6,29.835Zm2.492-.63a9.64,9.64,0,0,1,.52-3.314,6.558,6.558,0,0,1,1.424-2.355,5.837,5.837,0,0,1,2.191-1.424,7.746,7.746,0,0,1,2.794-.493,6.854,6.854,0,0,1,2.712.548,6.506,6.506,0,0,1,2.3,1.616,7.484,7.484,0,0,1,1.588,2.684,10.311,10.311,0,0,1,.6,3.67,9.918,9.918,0,0,1-.712,4.081,6.587,6.587,0,0,1-1.753,2.383,5.571,5.571,0,0,1-2.136,1.15,8.048,8.048,0,0,1-1.917.274,7.593,7.593,0,0,1-3.04-.6,7.39,7.39,0,0,1-2.41-1.78,8.385,8.385,0,0,1-1.589-2.766A11.057,11.057,0,0,1,245.093,29.2Zm22.367,2.712q0,1.7-.027,3.013a14.224,14.224,0,0,1-.109,2.027,5.445,5.445,0,0,1-.192.849.533.533,0,0,1-.438.383,2.007,2.007,0,0,1-.383.082,2.528,2.528,0,0,1-.356.027.169.169,0,0,0-.192.192q0,.192.383.192.274,0,.657-.027.411,0,.767-.027.383,0,.657-.027h.63q.3.027.712.027.438.027.959.027.52.027,1.013.027.384,0,.383-.192a.169.169,0,0,0-.192-.192q-.164,0-.493-.027a4.343,4.343,0,0,1-.575-.082,1,1,0,0,1-.74-.383,2.494,2.494,0,0,1-.219-.849q-.082-.712-.11-2.027V22.44q0-.411.192-.438a4.641,4.641,0,0,1,.6-.11,6.126,6.126,0,0,1,.74-.055h.548a3.4,3.4,0,0,1,.822.11,3.573,3.573,0,0,1,.931.329,3.224,3.224,0,0,1,.959.685,3.8,3.8,0,0,1,.767.986,4.527,4.527,0,0,1,.411.986,4.074,4.074,0,0,1,.164.876q.027.411.027.685a3.373,3.373,0,0,1-.329,1.479,3.7,3.7,0,0,1-.931,1.205,4.88,4.88,0,0,1-1.424.794,5.438,5.438,0,0,1-1.78.274,1.627,1.627,0,0,0-.52.055.2.2,0,0,0-.11.192.237.237,0,0,0,.082.164.294.294,0,0,0,.164.055,1.459,1.459,0,0,0,.329.027h.356a7.768,7.768,0,0,0,2.52-.383,6.115,6.115,0,0,0,1.972-1.123,5,5,0,0,0,1.26-1.753,5.571,5.571,0,0,0,.466-2.3,3.285,3.285,0,0,0-.411-1.671,4.137,4.137,0,0,0-.794-1.123q-.164-.137-.466-.356a4,4,0,0,0-.849-.438,6.114,6.114,0,0,0-1.342-.356,9.779,9.779,0,0,0-1.945-.164q-.411,0-.931.027h-.986q-.493,0-.9.027H268.2q-.274-.027-.685-.027h-.849q-.466-.027-.876-.027-.383,0-.383.192a.169.169,0,0,0,.192.192,3.839,3.839,0,0,1,.411.027,2.269,2.269,0,0,1,.411.027.962.962,0,0,1,.767.383,2.412,2.412,0,0,1,.219.9q.027.274.027.6.027.3.027.849v7.669Zm16.048,0q0,1.7-.027,3.013a14.225,14.225,0,0,1-.109,2.027,5.455,5.455,0,0,1-.192.849.533.533,0,0,1-.438.383,2.008,2.008,0,0,1-.383.082A2.529,2.529,0,0,1,282,38.3a.169.169,0,0,0-.192.192q0,.192.383.192.274,0,.657-.027.411,0,.767-.027.384,0,.657-.027h.63q.3.027.712.027.438.027.959.027.52.027,1.013.027.383,0,.383-.192a.169.169,0,0,0-.192-.192q-.164,0-.493-.027a4.343,4.343,0,0,1-.575-.082,1,1,0,0,1-.74-.383,2.5,2.5,0,0,1-.219-.849q-.082-.712-.11-2.027V22.44q0-.411.192-.438a4.641,4.641,0,0,1,.6-.11,6.127,6.127,0,0,1,.74-.055h.548a3.4,3.4,0,0,1,.822.11,3.572,3.572,0,0,1,.931.329,3.224,3.224,0,0,1,.959.685,3.8,3.8,0,0,1,.767.986,4.526,4.526,0,0,1,.411.986,4.078,4.078,0,0,1,.164.876q.027.411.027.685a3.374,3.374,0,0,1-.329,1.479,3.7,3.7,0,0,1-.931,1.205,4.88,4.88,0,0,1-1.424.794,5.439,5.439,0,0,1-1.78.274,1.627,1.627,0,0,0-.52.055.2.2,0,0,0-.109.192.237.237,0,0,0,.082.164.3.3,0,0,0,.164.055,1.46,1.46,0,0,0,.329.027h.356a7.768,7.768,0,0,0,2.52-.383,6.114,6.114,0,0,0,1.972-1.123,5,5,0,0,0,1.26-1.753,5.57,5.57,0,0,0,.466-2.3,3.286,3.286,0,0,0-.411-1.671,4.137,4.137,0,0,0-.794-1.123q-.164-.137-.466-.356a4,4,0,0,0-.849-.438A6.114,6.114,0,0,0,290,21.235a9.778,9.778,0,0,0-1.945-.164q-.411,0-.931.027h-.986q-.493,0-.9.027h-.986q-.274-.027-.685-.027h-.849q-.466-.027-.876-.027-.383,0-.383.192a.169.169,0,0,0,.192.192,3.841,3.841,0,0,1,.411.027,2.267,2.267,0,0,1,.411.027.962.962,0,0,1,.767.383,2.409,2.409,0,0,1,.219.9q.027.274.027.6.028.3.027.849v7.669Zm18.24-4.108V23.4q.027-.329.027-.6a2.7,2.7,0,0,1,.192-.9.965.965,0,0,1,.657-.383,1.5,1.5,0,0,1,.329-.055h.274a.169.169,0,0,0,.192-.192q0-.192-.383-.192-.274,0-.685.027h-.767q-.356,0-.657.027h-.63q-.274-.027-.657-.027h-.767q-.383-.027-.685-.027-.383,0-.383.192a.169.169,0,0,0,.192.192,2.377,2.377,0,0,1,.329.027,1.7,1.7,0,0,1,.411.055.77.77,0,0,1,.548.383,2.161,2.161,0,0,1,.219.876q.027.274.027.6.027.3.027.849v7.669q0,1.7-.027,3.013t-.11,2.027a4.11,4.11,0,0,1-.164.849.6.6,0,0,1-.466.383,2.008,2.008,0,0,1-.383.082,2.529,2.529,0,0,1-.356.027.169.169,0,0,0-.192.192q0,.192.383.192.274,0,.657-.027.383,0,.74-.027.383,0,.657-.027h.63q.3.027.74.027.438.027.959.027.52.027,1.013.027.383,0,.383-.192a.169.169,0,0,0-.192-.192q-.164,0-.493-.027a5.349,5.349,0,0,1-.6-.082.817.817,0,0,1-.685-.383,3.081,3.081,0,0,1-.192-.849q-.082-.712-.11-2.027V27.808Zm9.194-3.287q.274.3.876.959.63.657,1.479,1.561.849.876,1.835,1.945,1.013,1.041,2.054,2.136l2.027,2.082q1.068,1.068,1.972,2l1.534,1.534q.657.6.739.685.493.466.794.74.329.274.52.438.219.137.329.192a.442.442,0,0,0,.192.055.088.088,0,0,0,.082-.055q.055-.027.055-.192a3.864,3.864,0,0,0,.027-.52q.027-.329.027-.9l.055-13.64q0-.52.027-.876a2.143,2.143,0,0,1,.11-.575.823.823,0,0,1,.247-.383,1,1,0,0,1,.466-.192,1.54,1.54,0,0,1,.356-.055h.219a.213.213,0,0,0,.192-.082.224.224,0,0,0,.082-.137q0-.164-.438-.164-.739,0-1.287.027t-.767.027q-.219,0-.959-.027t-1.561-.027q-.466,0-.466.164a.451.451,0,0,0,.027.137q.027.082.164.082t.493.027q.356.027.685.082a.873.873,0,0,1,.712.575,5.755,5.755,0,0,1,.192,1.589l.247,11.668q-.274-.274-.876-.9-.575-.63-1.369-1.452-.767-.822-1.671-1.753-.876-.959-1.78-1.89-1.4-1.424-2.711-2.794t-2.355-2.465q-1.041-1.1-1.726-1.808-.685-.74-.822-.876-.192-.192-.466-.438a.671.671,0,0,0-.466-.274q-.137,0-.247.247a3.276,3.276,0,0,0-.082.931V35.258q0,.794-.027,1.342a4.6,4.6,0,0,1-.109.849,1.031,1.031,0,0,1-.192.493.658.658,0,0,1-.356.219,2.917,2.917,0,0,1-.575.11q-.274.027-.411.027a.169.169,0,0,0-.192.192q0,.192.383.192.822,0,1.479-.055.685-.027.849-.027t.822.027q.685.055,1.725.055.438,0,.438-.192a.169.169,0,0,0-.192-.192q-.164,0-.52-.027a4.123,4.123,0,0,1-.685-.11.953.953,0,0,1-.411-.192,1.257,1.257,0,0,1-.274-.466,4.026,4.026,0,0,1-.164-.794q-.055-.493-.082-1.205Zm33.415,12.243a.645.645,0,0,1-.137.466,3.834,3.834,0,0,1-.356.247,3.081,3.081,0,0,1-1.232.356,12.462,12.462,0,0,1-1.369.082,9.456,9.456,0,0,1-3.2-.548,8.877,8.877,0,0,1-2.958-1.89,6.839,6.839,0,0,1-.767-.876,8.807,8.807,0,0,1-.849-1.4,11.062,11.062,0,0,1-.657-1.862,9.239,9.239,0,0,1-.274-2.3,8.852,8.852,0,0,1,.657-3.561,5.874,5.874,0,0,1,1.725-2.3,6.17,6.17,0,0,1,2.657-1.26,12.729,12.729,0,0,1,2.383-.247,9.836,9.836,0,0,1,3.725.575,4.237,4.237,0,0,1,1.835,1.233,2.4,2.4,0,0,1,.411.876,6.112,6.112,0,0,1,.137.657q0,.356.164.356a.213.213,0,0,0,.192-.082.727.727,0,0,0,.082-.411q0-.876.027-1.452t.027-.931q.027-.383.055-.575a2.377,2.377,0,0,0,.027-.329q0-.219-.3-.219a6.865,6.865,0,0,1-1.013-.082q-.548-.082-.931-.164-.164-.027-.548-.082a8.741,8.741,0,0,0-.9-.137,9.254,9.254,0,0,0-1.1-.11q-.575-.055-1.15-.055a21.7,21.7,0,0,0-3.095.247,8.975,8.975,0,0,0-3.314,1.233,8.573,8.573,0,0,0-1.534,1.233,7.4,7.4,0,0,0-1.287,1.671,9.241,9.241,0,0,0-.876,2.164,9.554,9.554,0,0,0-.329,2.575,8.892,8.892,0,0,0,.247,2.109,10.828,10.828,0,0,0,.63,1.835,9.013,9.013,0,0,0,.931,1.534,7.3,7.3,0,0,0,1.068,1.15,9.108,9.108,0,0,0,2.109,1.342,14.289,14.289,0,0,0,2.191.767,12.085,12.085,0,0,0,2,.3q.959.082,1.643.082.52,0,1.178-.055a11.869,11.869,0,0,0,1.342-.192,10.989,10.989,0,0,0,1.342-.3,6.462,6.462,0,0,0,1.26-.493.5.5,0,0,0,.274-.274,5.048,5.048,0,0,0,.055-.986V32.793q0-.575.027-1.123a2.229,2.229,0,0,1,.219-.9.944.944,0,0,1,.685-.383,1.5,1.5,0,0,1,.329-.055h.274a.169.169,0,0,0,.192-.192q0-.192-.383-.192-.274,0-.657.027h-.767q-.356,0-.63.027h-.657q-.3-.027-.712-.027h-.9q-.466-.027-.876-.027-.384,0-.383.192a.169.169,0,0,0,.192.192,3.841,3.841,0,0,1,.411.027,2.269,2.269,0,0,1,.411.027,2.635,2.635,0,0,1,.575.192.588.588,0,0,1,.3.356,2.047,2.047,0,0,1,.137.685q.027.411.027,1.123Zm37.523-18.433q-.082-.74-.329-.74-.219,0-.411.438l-8.052,17.2L364.705,18q-.192-.411-.411-.411-.246,0-.3.493l-1.972,17.858a11.369,11.369,0,0,1-.247,1.479,1.011,1.011,0,0,1-.849.794q-.3.055-.493.082H360.1q-.274,0-.274.137,0,.246.466.247.274,0,.63-.027.356,0,.685-.027.356,0,.63-.027h.685q.274.027.63.027.383.027.794.027.411.027.794.027.493,0,.493-.247,0-.137-.219-.137-.137,0-.411-.027a5.1,5.1,0,0,1-.63-.11.9.9,0,0,1-.52-.3.871.871,0,0,1-.192-.548V36.6q0-.356.027-.685l1.1-12.708h.11q.082.192.356.822.274.6.657,1.424t.794,1.753q.438.931.822,1.753.384.794.657,1.369t.329.685l.466.931q.411.794.931,1.835t1.013,2.082q.52,1.013.794,1.506.384.74.548,1.013.164.247.3.247.192,0,.329-.274t.575-1.178l6.71-14.242h.082l1.315,14.133a2.976,2.976,0,0,1,.027.685q-.027.274-.137.3-.192.027-.192.192,0,.11.137.164a3.755,3.755,0,0,0,.63.11q.383.027,1.041.055l1.4.055q.712.027,1.315.027.6.027.82.027a1.319,1.319,0,0,0,.412-.055q.164-.055.164-.192t-.219-.137c-.147,0-.383-.009-.712-.027a4.445,4.445,0,0,1-1.068-.219,1.476,1.476,0,0,1-.712-.466,3.206,3.206,0,0,1-.438-.767,6.426,6.426,0,0,1-.219-.849,7.308,7.308,0,0,1-.11-.822Zm8.2,17.775a6.318,6.318,0,0,1-.794,1.452,1.711,1.711,0,0,1-1.233.685q-.137.027-.356.055h-.356q-.219,0-.219.192t.466.192q.356,0,.74-.027.411,0,.74-.027a5.587,5.587,0,0,0,.6-.027h.712q.274.027.6.027.329.027.657.027.329.027.548.027.356,0,.356-.192t-.246-.192h-.219a1.27,1.27,0,0,1-.575-.137.514.514,0,0,1-.247-.493,4.55,4.55,0,0,1,.356-1.561l1.369-3.725a.265.265,0,0,1,.246-.192h5.56a.248.248,0,0,1,.219.137l2.164,5.341q.137.3,0,.438a.688.688,0,0,1-.219.192,1.339,1.339,0,0,1-.137.082q-.027,0-.027.082,0,.11.247.137.247,0,.6.027.63.027,1.233.027.63.027,1.15.027h1.424a1.214,1.214,0,0,0,.383-.055q.164-.027.164-.137a.13.13,0,0,0-.11-.137.337.337,0,0,0-.192-.055,4.016,4.016,0,0,1-.438-.027,2.95,2.95,0,0,1-.52-.11,2.4,2.4,0,0,1-.411-.164,2.016,2.016,0,0,1-.493-.383,5.993,5.993,0,0,1-.548-.74,10.429,10.429,0,0,1-.6-1.26q-.383-.876-.931-2.191-.52-1.342-1.123-2.821t-1.233-2.985q-.6-1.534-1.123-2.794-.52-1.287-.9-2.191-.356-.9-.466-1.15l-.3-.6q-.082-.247-.274-.247a.3.3,0,0,0-.246.164,4.585,4.585,0,0,0-.329.74Zm3.478-4.875q-.137,0-.082-.164l2.246-6.382q.192-.52.411,0l2.383,6.382q.027.164-.082.164Zm17.8-3.424V23.4q.027-.329.027-.6a2.7,2.7,0,0,1,.192-.9.972.972,0,0,1,.712-.411,3.529,3.529,0,0,1,.438-.027,3,3,0,0,1,.356-.027q.192,0,.192-.164,0-.192-.383-.192-.274,0-.712.027h-.849q-.411,0-.74.027H409.9q-.274-.027-.685-.027h-.849q-.466-.027-.876-.027-.384,0-.383.192a.169.169,0,0,0,.192.192,3.841,3.841,0,0,1,.411.027,2.268,2.268,0,0,1,.411.027.962.962,0,0,1,.767.383,2.411,2.411,0,0,1,.219.9q.027.274.027.6.027.3.027.849v7.669q0,1.7-.027,3.013a14.217,14.217,0,0,1-.11,2.027,5.435,5.435,0,0,1-.192.849.533.533,0,0,1-.438.383,2.007,2.007,0,0,1-.383.082,2.528,2.528,0,0,1-.356.027.169.169,0,0,0-.192.192q0,.192.383.192.3,0,.657-.027.356,0,.74-.027.356-.027.63-.027h1.534q.63.027,1.452.055,1.671.082,4.191.082.493,0,.767-.027a1.6,1.6,0,0,0,.411-.082.353.353,0,0,0,.219-.164,1.317,1.317,0,0,0,.137-.356,3.724,3.724,0,0,0,.137-.6q.055-.383.11-.712.055-.356.082-.63.027-.3.027-.383,0-.356-.164-.356-.192,0-.247.3a2.663,2.663,0,0,1-.219.712,2.5,2.5,0,0,1-.356.6,1.853,1.853,0,0,1-1.205.63,15.543,15.543,0,0,1-1.7.082,15.913,15.913,0,0,1-2.164-.11,1.98,1.98,0,0,1-1.041-.438,1.254,1.254,0,0,1-.274-.52,7.474,7.474,0,0,1-.137-.959q-.055-.63-.082-1.534V27.808Zm14.658,0V23.4q.027-.329.027-.6a2.7,2.7,0,0,1,.192-.9.972.972,0,0,1,.712-.411,3.529,3.529,0,0,1,.438-.027,3,3,0,0,1,.356-.027q.192,0,.192-.164,0-.192-.383-.192-.274,0-.712.027h-.849q-.411,0-.74.027h-.685q-.274-.027-.685-.027h-.849q-.466-.027-.876-.027-.383,0-.383.192a.169.169,0,0,0,.192.192,3.839,3.839,0,0,1,.411.027,2.268,2.268,0,0,1,.411.027.962.962,0,0,1,.767.383,2.409,2.409,0,0,1,.219.9q.027.274.027.6.027.3.027.849v7.669q0,1.7-.027,3.013a14.225,14.225,0,0,1-.109,2.027,5.455,5.455,0,0,1-.192.849.533.533,0,0,1-.438.383,2.009,2.009,0,0,1-.383.082,2.528,2.528,0,0,1-.356.027.169.169,0,0,0-.192.192q0,.192.383.192.3,0,.657-.027.356,0,.74-.027.356-.027.63-.027h1.534q.63.027,1.452.055,1.671.082,4.19.082.493,0,.767-.027a1.6,1.6,0,0,0,.411-.082.353.353,0,0,0,.219-.164,1.319,1.319,0,0,0,.137-.356,3.73,3.73,0,0,0,.137-.6q.055-.383.11-.712.055-.356.082-.63.027-.3.027-.383,0-.356-.164-.356-.192,0-.246.3a2.663,2.663,0,0,1-.219.712,2.492,2.492,0,0,1-.356.6,1.853,1.853,0,0,1-1.205.63,15.544,15.544,0,0,1-1.7.082,15.912,15.912,0,0,1-2.164-.11,1.98,1.98,0,0,1-1.041-.438,1.254,1.254,0,0,1-.274-.52,7.453,7.453,0,0,1-.137-.959q-.055-.63-.082-1.534V27.808Z" transform="translate(0 0)" fill="#fff"/>
    </g>
  </g>
</svg>
