<svg width="532" height="493" viewBox="0 0 532 493" fill="none" xmlns="http://www.w3.org/2000/svg">
<path d="M251.284 493H7.2171C5.303 493 3.46731 492.24 2.11384 490.886C0.760371 489.533 0 487.697 0 485.783V7.1539C0.0166654 5.25078 0.784386 3.43128 2.13605 2.09145C3.48772 0.751618 5.3139 -7.29622e-05 7.2171 5.31177e-09H251.284C252.232 5.31178e-09 253.17 0.186674 254.046 0.549367C254.921 0.912061 255.717 1.44367 256.387 2.11384C257.057 2.78401 257.589 3.57962 257.952 4.45524C258.314 5.33086 258.501 6.26934 258.501 7.2171V485.783C258.501 486.731 258.314 487.669 257.952 488.545C257.589 489.42 257.057 490.216 256.387 490.886C255.717 491.556 254.921 492.088 254.046 492.451C253.17 492.813 252.232 493 251.284 493ZM7.2171 0.252789C5.38784 0.25613 3.63445 0.984281 2.34096 2.27777C1.04748 3.57125 0.319326 5.32464 0.315985 7.1539V485.783C0.319326 487.612 1.04748 489.366 2.34096 490.659C3.63445 491.953 5.38784 492.681 7.2171 492.684H251.284C253.113 492.681 254.867 491.953 256.16 490.659C257.454 489.366 258.182 487.612 258.185 485.783V7.1539C258.182 5.32464 257.454 3.57125 256.16 2.27777C254.867 0.984281 253.113 0.25613 251.284 0.252789H7.2171Z" fill="#EBEBEB"/>
<path d="M524.675 493H280.608C278.694 493 276.858 492.24 275.504 490.886C274.151 489.533 273.391 487.697 273.391 485.783V7.1539C273.407 5.25078 274.175 3.43128 275.527 2.09145C276.878 0.751618 278.705 -7.29622e-05 280.608 5.31177e-09H524.675C526.589 5.31179e-09 528.424 0.760371 529.778 2.11384C531.131 3.46731 531.892 5.30301 531.892 7.2171V485.783C531.892 486.731 531.705 487.669 531.342 488.545C530.98 489.42 530.448 490.216 529.778 490.886C529.108 491.556 528.312 492.088 527.437 492.451C526.561 492.813 525.622 493 524.675 493ZM280.608 0.252789C278.778 0.25613 277.025 0.984281 275.732 2.27777C274.438 3.57125 273.71 5.32464 273.707 7.1539V485.783C273.71 487.612 274.438 489.366 275.732 490.659C277.025 491.953 278.778 492.681 280.608 492.684H524.675C526.504 492.681 528.257 491.953 529.551 490.659C530.844 489.366 531.572 487.612 531.576 485.783V7.1539C531.572 5.32464 530.844 3.57125 529.551 2.27777C528.257 0.984281 526.504 0.25613 524.675 0.252789H280.608Z" fill="#EBEBEB"/>
<path d="M92.8487 143.141L94.8963 147.274L99.4717 147.944L96.1602 151.167L96.9439 155.717L92.8487 153.569L88.7662 155.717L89.5498 151.167L86.2383 147.944L90.8137 147.274L92.8487 143.141Z" fill="#EBEBEB"/>
<path d="M501.924 338.079L503.971 342.225L508.547 342.895L505.235 346.105L506.019 350.668L501.924 348.519L497.841 350.668L498.625 346.105L495.313 342.895L499.889 342.225L501.924 338.079Z" fill="#F5F5F5"/>
<path d="M420.905 458.267L422.953 462.4L427.516 463.07L424.204 466.293L424.988 470.843L420.905 468.695L416.823 470.843L417.594 466.293L414.295 463.07L418.858 462.4L420.905 458.267Z" fill="#F5F5F5"/>
<path d="M235.536 69.7065L236.294 71.2485L238 71.5013C238.095 71.5137 238.185 71.553 238.259 71.6146C238.333 71.6762 238.387 71.7575 238.416 71.849C238.445 71.9405 238.448 72.0384 238.424 72.1313C238.399 72.2241 238.349 72.3081 238.278 72.3734L237.014 73.5741L237.305 75.2678C237.32 75.3621 237.309 75.4586 237.272 75.5468C237.236 75.635 237.176 75.7115 237.098 75.7677C237.021 75.8239 236.93 75.8577 236.835 75.8654C236.74 75.8731 236.644 75.8544 236.559 75.8113L235.043 75.0024L233.526 75.8113C233.441 75.8544 233.345 75.8731 233.25 75.8654C233.155 75.8577 233.064 75.8239 232.987 75.7677C232.91 75.7115 232.85 75.635 232.813 75.5468C232.777 75.4586 232.765 75.3621 232.78 75.2678L233.058 73.5741L231.794 72.3734C231.724 72.3073 231.673 72.2223 231.649 72.1284C231.626 72.0346 231.629 71.9359 231.66 71.844C231.69 71.7522 231.747 71.671 231.822 71.6103C231.897 71.5495 231.989 71.5117 232.085 71.5013L233.779 71.2485L234.537 69.7065C234.567 69.5974 234.633 69.5012 234.723 69.4327C234.813 69.3642 234.923 69.3271 235.036 69.3271C235.15 69.3271 235.26 69.3642 235.35 69.4327C235.44 69.5012 235.505 69.5974 235.536 69.7065Z" fill="#EBEBEB"/>
<path d="M26.7826 438.587L27.541 440.117L29.2347 440.37C29.3308 440.383 29.4213 440.423 29.4959 440.485C29.5704 440.547 29.626 440.629 29.6563 440.721C29.6866 440.813 29.6904 440.912 29.6672 441.006C29.6441 441.101 29.5949 441.187 29.5254 441.254L28.2614 442.442L28.5521 444.136C28.5671 444.23 28.5557 444.327 28.5192 444.415C28.4828 444.503 28.4227 444.58 28.3455 444.636C28.2684 444.692 28.1772 444.726 28.0821 444.734C27.987 444.741 27.8916 444.723 27.8064 444.68L26.2897 443.883L24.773 444.68C24.6878 444.723 24.5924 444.741 24.4973 444.734C24.4021 444.726 24.311 444.692 24.2338 444.636C24.1567 444.58 24.0966 444.503 24.0601 444.415C24.0237 444.327 24.0123 444.23 24.0272 444.136L24.3179 442.442L23.054 441.254C22.9847 441.187 22.9353 441.103 22.9116 441.009C22.8878 440.916 22.8905 440.818 22.9194 440.726C22.9482 440.634 23.0021 440.552 23.075 440.489C23.1479 440.426 23.2369 440.385 23.3321 440.37L25.0257 440.117L25.7967 438.587C25.8305 438.483 25.8964 438.392 25.985 438.328C26.0735 438.264 26.1802 438.229 26.2897 438.229C26.3992 438.229 26.5058 438.264 26.5944 438.328C26.683 438.392 26.7488 438.483 26.7826 438.587Z" fill="#F5F5F5"/>
<path d="M60.8717 53.4645L61.6301 55.0065L63.3364 55.2466C63.4315 55.2618 63.5205 55.3032 63.5934 55.3661C63.6663 55.4291 63.7202 55.5111 63.7491 55.603C63.778 55.6949 63.7807 55.793 63.7569 55.8863C63.7331 55.9797 63.6838 56.0645 63.6145 56.1314L62.3505 57.3953L62.6412 59.0764C62.6614 59.1718 62.6536 59.271 62.6187 59.3621C62.5837 59.4532 62.5232 59.5322 62.4444 59.5896C62.3656 59.6471 62.2718 59.6805 62.1744 59.6859C62.077 59.6912 61.9801 59.6683 61.8955 59.6199L60.3788 58.8236L58.862 59.6199C58.7774 59.6683 58.6805 59.6912 58.5831 59.6859C58.4857 59.6805 58.392 59.6471 58.3132 59.5896C58.2343 59.5322 58.1738 59.4532 58.1389 59.3621C58.104 59.271 58.0961 59.1718 58.1163 59.0764L58.3944 57.3953L57.1304 56.1314C57.0609 56.0637 57.0117 55.9778 56.9886 55.8836C56.9654 55.7893 56.9692 55.6904 56.9995 55.5982C57.0298 55.506 57.0854 55.4242 57.1599 55.362C57.2345 55.2999 57.325 55.2599 57.4211 55.2466L59.1148 55.0065L59.9237 53.4645C59.9643 53.3726 60.0308 53.2945 60.1149 53.2397C60.1991 53.1849 60.2973 53.1558 60.3977 53.1558C60.4981 53.1558 60.5964 53.1849 60.6805 53.2397C60.7647 53.2945 60.8311 53.3726 60.8717 53.4645Z" fill="#EBEBEB"/>
<path d="M58.8239 358.1C58.8264 358.433 58.73 358.759 58.5468 359.037C58.3636 359.315 58.102 359.532 57.795 359.662C57.4881 359.791 57.1497 359.826 56.8228 359.762C56.4958 359.699 56.1951 359.54 55.9588 359.305C55.7224 359.071 55.561 358.771 55.4952 358.445C55.4293 358.118 55.4618 357.78 55.5887 357.472C55.7155 357.164 55.931 356.901 56.2077 356.715C56.4844 356.53 56.8099 356.431 57.1429 356.431C57.5866 356.431 58.0122 356.607 58.3271 356.919C58.642 357.232 58.8206 357.656 58.8239 358.1Z" fill="#EBEBEB"/>
<path d="M298.391 147.742C298.394 148.075 298.297 148.401 298.114 148.679C297.931 148.957 297.669 149.175 297.362 149.304C297.055 149.433 296.717 149.468 296.39 149.405C296.063 149.341 295.763 149.182 295.526 148.947C295.29 148.713 295.128 148.413 295.063 148.087C294.997 147.761 295.029 147.422 295.156 147.114C295.283 146.806 295.498 146.543 295.775 146.357C296.052 146.172 296.377 146.073 296.71 146.073C296.93 146.072 297.149 146.114 297.353 146.197C297.556 146.28 297.742 146.402 297.898 146.557C298.054 146.713 298.178 146.897 298.263 147.1C298.348 147.304 298.391 147.522 298.391 147.742Z" fill="#EBEBEB"/>
<path d="M211.23 54.8549C211.23 55.1873 211.132 55.5124 210.947 55.7888C210.762 56.0653 210.5 56.2807 210.192 56.408C209.885 56.5352 209.547 56.5685 209.221 56.5036C208.895 56.4387 208.596 56.2786 208.361 56.0435C208.125 55.8084 207.965 55.5089 207.9 55.1828C207.836 54.8567 207.869 54.5187 207.996 54.2116C208.123 53.9044 208.339 53.6418 208.615 53.4571C208.892 53.2724 209.217 53.1738 209.549 53.1738C209.994 53.1771 210.42 53.3553 210.734 53.6698C211.049 53.9844 211.227 54.4101 211.23 54.8549Z" fill="#F5F5F5"/>
<path d="M213.893 464.553C218.886 463.375 221.979 458.371 220.8 453.378C219.622 448.384 214.618 445.291 209.625 446.47C204.631 447.649 201.538 452.652 202.717 457.646C203.896 462.639 208.899 465.732 213.893 464.553Z" fill="#F0F0F0"/>
<path d="M208.563 450.077C206.66 450.073 204.805 450.675 203.267 451.796C202.482 453.598 202.289 455.602 202.716 457.521C203.144 459.44 204.17 461.173 205.646 462.471C207.123 463.769 208.973 464.564 210.931 464.742C212.888 464.92 214.852 464.472 216.538 463.462C217.285 462.081 217.66 460.53 217.627 458.961C217.594 457.392 217.154 455.858 216.35 454.51C215.546 453.162 214.405 452.046 213.04 451.271C211.675 450.496 210.133 450.089 208.563 450.089V450.077Z" fill="#E6E6E6"/>
<path d="M136.619 294.044H59.708V259.323L136.619 167.89H173.425V261.295H192.498V294.044H173.425V322.457H136.619V294.044ZM136.619 261.295V213.467L95.9705 261.295H136.619Z" fill="#B08E49"/>
<path d="M205.655 245.849C205.655 216.956 210.854 196.733 221.252 185.18C231.65 173.628 247.496 167.856 268.789 167.864C279.01 167.864 287.407 169.128 293.979 171.656C299.95 173.807 305.417 177.158 310.044 181.502C313.944 185.226 317.248 189.527 319.839 194.255C322.404 199.192 324.336 204.432 325.59 209.852C328.448 221.431 329.874 233.317 329.837 245.243C329.837 272.813 325.173 292.99 315.845 305.773C306.518 318.555 290.453 324.951 267.651 324.959C254.86 324.959 244.525 322.92 236.647 318.842C228.705 314.697 222.015 308.505 217.271 300.907C213.605 295.312 210.753 287.656 208.714 277.941C206.597 267.377 205.572 256.623 205.655 245.849ZM247.542 245.951C247.542 265.331 249.248 278.548 252.661 285.6C256.074 292.653 261.033 296.196 267.538 296.23C269.602 296.253 271.65 295.866 273.564 295.092C275.478 294.317 277.218 293.17 278.686 291.718C281.837 288.71 284.154 283.957 285.637 277.461C287.12 270.964 287.862 260.852 287.862 247.126C287.862 226.953 286.151 213.391 282.73 206.44C279.309 199.488 274.178 196.016 267.335 196.025C260.358 196.025 255.303 199.568 252.168 206.655C249.034 213.741 247.492 226.84 247.542 245.951Z" fill="#B08E49"/>
<path d="M419.818 294.044H342.907V259.323L419.818 167.89H456.624V261.295H475.76V294.044H456.624V322.457H419.818V294.044ZM419.818 261.295V213.467L379.182 261.295H419.818Z" fill="#B08E49"/>
<g opacity="0.3">
<path opacity="0.3" d="M204.011 114.538C204.011 115.006 203.872 115.464 203.612 115.853C203.352 116.242 202.982 116.545 202.549 116.723C202.117 116.902 201.641 116.948 201.182 116.856C200.723 116.763 200.302 116.537 199.972 116.205C199.642 115.873 199.418 115.451 199.328 114.992C199.238 114.532 199.287 114.057 199.468 113.625C199.649 113.193 199.953 112.825 200.344 112.567C200.734 112.309 201.192 112.172 201.66 112.175C201.97 112.175 202.277 112.236 202.563 112.355C202.849 112.474 203.109 112.648 203.327 112.868C203.546 113.088 203.719 113.348 203.836 113.635C203.953 113.922 204.013 114.229 204.011 114.538Z" fill="#B08E49"/>
<path opacity="0.3" d="M42.1899 205.327C43.1113 205.327 43.8583 204.58 43.8583 203.659C43.8583 202.737 43.1113 201.99 42.1899 201.99C41.2685 201.99 40.5215 202.737 40.5215 203.659C40.5215 204.58 41.2685 205.327 42.1899 205.327Z" fill="#B08E49"/>
<path opacity="0.3" d="M317.83 448.977C319.15 448.977 320.219 447.907 320.219 446.588C320.219 445.269 319.15 444.199 317.83 444.199C316.511 444.199 315.441 445.269 315.441 446.588C315.441 447.907 316.511 448.977 317.83 448.977Z" fill="#B08E49"/>
<path opacity="0.3" d="M375.276 351.78C376.197 351.78 376.944 351.033 376.944 350.111C376.944 349.19 376.197 348.443 375.276 348.443C374.354 348.443 373.607 349.19 373.607 350.111C373.607 351.033 374.354 351.78 375.276 351.78Z" fill="#B08E49"/>
<path opacity="0.3" d="M486.086 51.3413C486.086 51.6712 485.988 51.9938 485.805 52.2682C485.621 52.5425 485.361 52.7564 485.056 52.8827C484.751 53.0089 484.416 53.042 484.092 52.9776C483.768 52.9132 483.471 52.7543 483.238 52.521C483.004 52.2877 482.845 51.9904 482.781 51.6667C482.717 51.3431 482.75 51.0076 482.876 50.7028C483.002 50.3979 483.216 50.1374 483.49 49.954C483.765 49.7707 484.087 49.6729 484.417 49.6729C484.86 49.6729 485.284 49.8486 485.597 50.1615C485.91 50.4744 486.086 50.8988 486.086 51.3413Z" fill="#B08E49"/>
<path opacity="0.3" d="M168.307 17.6953C168.307 18.0252 168.209 18.3478 168.025 18.6222C167.842 18.8965 167.581 19.1104 167.277 19.2367C166.972 19.3629 166.636 19.396 166.313 19.3316C165.989 19.2672 165.692 19.1083 165.458 18.875C165.225 18.6417 165.066 18.3444 165.002 18.0207C164.937 17.6971 164.97 17.3616 165.097 17.0568C165.223 16.7519 165.437 16.4914 165.711 16.308C165.986 16.1247 166.308 16.0269 166.638 16.0269C167.08 16.0302 167.502 16.207 167.814 16.5192C168.126 16.8313 168.303 17.2538 168.307 17.6953Z" fill="#B08E49"/>
<path opacity="0.3" d="M300.956 105.236C301.878 105.236 302.625 104.489 302.625 103.567C302.625 102.646 301.878 101.899 300.956 101.899C300.035 101.899 299.288 102.646 299.288 103.567C299.288 104.489 300.035 105.236 300.956 105.236Z" fill="#B08E49"/>
</g>
<path d="M128.466 105.249C143.761 105.249 156.159 92.8501 156.159 77.5557C156.159 62.2613 143.761 49.8628 128.466 49.8628C113.172 49.8628 100.773 62.2613 100.773 77.5557C100.773 92.8501 113.172 105.249 128.466 105.249Z" fill="#B08E49"/>
<path opacity="0.7" d="M128.466 105.249C143.761 105.249 156.159 92.8501 156.159 77.5557C156.159 62.2613 143.761 49.8628 128.466 49.8628C113.172 49.8628 100.773 62.2613 100.773 77.5557C100.773 92.8501 113.172 105.249 128.466 105.249Z" fill="white"/>
<path opacity="0.2" d="M118.923 56.6622C115.152 56.6507 111.418 57.4121 107.952 58.8994C103.693 63.5809 101.165 69.5797 100.788 75.8978C100.412 82.2159 102.21 88.4724 105.884 93.6263C109.558 98.7802 114.886 102.521 120.981 104.226C127.076 105.931 133.572 105.498 139.386 102.998C142.992 99.0253 145.366 94.091 146.22 88.7946C147.075 83.4982 146.374 78.0676 144.201 73.1622C142.029 68.2567 138.479 64.0875 133.983 61.1607C129.487 58.234 124.238 56.6756 118.873 56.6749L118.923 56.6622Z" fill="#B08E49"/>
<path opacity="0.2" d="M116.168 63.981C116.168 64.481 116.02 64.9697 115.742 65.3854C115.464 65.8011 115.069 66.1251 114.608 66.3165C114.146 66.5078 113.637 66.5579 113.147 66.4603C112.657 66.3628 112.206 66.122 111.853 65.7685C111.499 65.4149 111.258 64.9645 111.161 64.4742C111.063 63.9838 111.113 63.4755 111.305 63.0136C111.496 62.5517 111.82 62.1569 112.236 61.8791C112.651 61.6014 113.14 61.4531 113.64 61.4531C114.311 61.4531 114.954 61.7195 115.428 62.1935C115.902 62.6676 116.168 63.3106 116.168 63.981Z" fill="#B08E49"/>
<path opacity="0.2" d="M145.947 61.4527C145.947 61.9527 145.799 62.4414 145.521 62.8571C145.244 63.2728 144.849 63.5968 144.387 63.7881C143.925 63.9795 143.417 64.0295 142.926 63.932C142.436 63.8345 141.986 63.5937 141.632 63.2402C141.278 62.8866 141.038 62.4362 140.94 61.9458C140.843 61.4555 140.893 60.9472 141.084 60.4853C141.275 60.0234 141.599 59.6286 142.015 59.3508C142.431 59.0731 142.92 58.9248 143.419 58.9248C144.09 58.9248 144.733 59.1911 145.207 59.6652C145.681 60.1393 145.947 60.7823 145.947 61.4527Z" fill="#B08E49"/>
<path opacity="0.2" d="M140.891 79.5017C140.891 80.3216 140.648 81.1232 140.192 81.8049C139.737 82.4867 139.089 83.0181 138.332 83.3318C137.574 83.6456 136.741 83.7277 135.937 83.5677C135.132 83.4078 134.394 83.0129 133.814 82.4331C133.234 81.8534 132.839 81.1147 132.679 80.3105C132.519 79.5063 132.601 78.6727 132.915 77.9152C133.229 77.1576 133.76 76.5102 134.442 76.0546C135.124 75.5991 135.925 75.356 136.745 75.356C137.845 75.356 138.899 75.7927 139.677 76.5702C140.454 77.3477 140.891 78.4022 140.891 79.5017Z" fill="#B08E49"/>
<path opacity="0.2" d="M127.721 91.3197C127.721 92.4147 127.396 93.485 126.788 94.3954C126.179 95.3058 125.315 96.0154 124.303 96.4344C123.291 96.8534 122.178 96.963 121.104 96.7494C120.031 96.5358 119.044 96.0086 118.27 95.2343C117.496 94.4601 116.968 93.4737 116.755 92.3998C116.541 91.3259 116.651 90.2128 117.07 89.2012C117.489 88.1896 118.198 87.325 119.109 86.7167C120.019 86.1084 121.09 85.7837 122.184 85.7837C123.653 85.7837 125.061 86.3669 126.099 87.4052C127.137 88.4434 127.721 89.8515 127.721 91.3197Z" fill="#B08E49"/>
<path d="M456.674 411.597C459.757 398.533 451.666 385.442 438.601 382.358C425.537 379.275 412.446 387.366 409.363 400.431C406.279 413.495 414.37 426.586 427.435 429.67C440.5 432.753 453.59 424.662 456.674 411.597Z" fill="#B08E49"/>
<path opacity="0.3" d="M456.674 411.597C459.757 398.533 451.666 385.442 438.601 382.358C425.537 379.275 412.446 387.366 409.363 400.431C406.279 413.495 414.37 426.586 427.435 429.67C440.5 432.753 453.59 424.662 456.674 411.597Z" fill="white"/>
<path opacity="0.4" d="M448.37 387.196C442.982 385.57 437.196 385.865 432.002 388.031C426.807 390.197 422.526 394.099 419.889 399.071C417.252 404.043 416.423 409.777 417.545 415.292C418.666 420.808 421.667 425.762 426.036 429.31C428.302 429.999 430.658 430.348 433.026 430.347C438.044 430.346 442.938 428.792 447.037 425.898C451.137 423.004 454.24 418.912 455.921 414.185C457.602 409.457 457.779 404.325 456.427 399.492C455.075 394.66 452.261 390.365 448.37 387.196Z" fill="#B08E49"/>
<path d="M409.82 413.309C383.871 425.518 403.222 434.935 439.788 421.79C473.649 409.618 486.554 394.274 456.219 399.039C457.85 405.422 415.444 421.941 409.82 413.309Z" fill="#B08E49"/>
<path opacity="0.2" d="M448.079 167.889C414.092 190.854 370.094 221.189 357.948 294.043H355.356C367.174 221.998 409.567 190.943 443.567 167.889H448.079Z" fill="black"/>
<path d="M272.266 395.955C250.779 395.955 229.532 386.26 219.18 370.436C212.797 360.653 205.378 340.164 227.471 312.825L229.431 314.418C213.808 333.756 210.927 353.158 221.303 369.058C233.943 388.396 263.759 398.129 289.215 391.202C315.29 384.112 331.115 361.436 332.644 328.991C337.864 218.005 396.827 183.815 439.877 158.852C466.634 143.344 485.96 132.145 481.713 108.497C481.119 105.223 479.817 102.961 477.706 101.57C472.208 97.9428 461.465 100.458 449.028 103.352C424.621 109.04 391.202 116.826 371.295 82.9651L373.482 81.7012C392.441 113.97 423.496 106.727 448.459 100.913C461.465 97.8922 472.689 95.2759 479.097 99.4848C481.814 101.267 483.483 104.086 484.153 108.08C488.715 133.46 467.721 145.644 441.115 161.064C398.558 185.736 340.291 219.521 335.134 329.168C333.541 362.789 317.034 386.311 289.834 393.705C284.104 395.231 278.196 395.987 272.266 395.955Z" fill="#B08E49"/>
<path opacity="0.2" d="M272.266 395.955C250.779 395.955 229.532 386.26 219.18 370.436C212.797 360.653 205.378 340.164 227.471 312.825L229.431 314.418C213.808 333.756 210.927 353.158 221.303 369.058C233.943 388.396 263.759 398.129 289.215 391.202C315.29 384.112 331.115 361.436 332.644 328.991C337.864 218.005 396.827 183.815 439.877 158.852C466.634 143.344 485.96 132.145 481.713 108.497C481.119 105.223 479.817 102.961 477.706 101.57C472.208 97.9428 461.465 100.458 449.028 103.352C424.621 109.04 391.202 116.826 371.295 82.9651L373.482 81.7012C392.441 113.97 423.496 106.727 448.459 100.913C461.465 97.8922 472.689 95.2759 479.097 99.4848C481.814 101.267 483.483 104.086 484.153 108.08C488.715 133.46 467.721 145.644 441.115 161.064C398.558 185.736 340.291 219.521 335.134 329.168C333.541 362.789 317.034 386.311 289.834 393.705C284.104 395.231 278.196 395.987 272.266 395.955Z" fill="white"/>
<path d="M345.271 53.085C351.094 53.1186 356.88 54.0261 362.435 55.7772C362.435 55.7772 376.338 79.5013 377.981 84.9363C377.4 90.2954 368.363 99.0798 368.363 99.0798L345.271 53.085Z" fill="#B08E49"/>
<path opacity="0.3" d="M345.271 53.085C351.094 53.1186 356.88 54.0261 362.435 55.7772C362.435 55.7772 376.338 79.5013 377.981 84.9363C377.4 90.2954 368.363 99.0798 368.363 99.0798L345.271 53.085Z" fill="white"/>
<path d="M386.45 168.268C381.096 161.722 376.214 154.803 371.839 147.565C370.777 145.736 369.77 143.874 368.818 141.978C368.275 140.904 367.757 139.83 367.251 138.743C366.588 137.685 366.073 136.541 365.722 135.343C364.205 119.328 369.69 107.536 364.458 94.6816L343.628 102.821C343.628 102.821 345.397 125.724 349.442 139.476C351.97 147.982 357.632 155.338 363.105 162.151C364.812 164.274 366.455 166.461 368.161 168.597C369.867 170.733 371.586 172.465 373.217 174.474C375.681 177.52 376.49 180.44 374.632 184.03L374.316 184.598C373.786 185.534 376.263 186.595 377.83 184.598C380.358 181.337 380.004 181.54 382.203 178.759C383.543 177.078 385.073 175.245 386.4 173.703C387.04 172.945 387.395 171.987 387.404 170.995C387.414 170.003 387.076 169.038 386.45 168.268Z" fill="#B08E49"/>
<path opacity="0.7" d="M386.45 168.268C381.096 161.722 376.214 154.803 371.839 147.565C370.777 145.736 369.77 143.874 368.818 141.978C368.275 140.904 367.757 139.83 367.251 138.743C366.588 137.685 366.073 136.541 365.722 135.343C364.205 119.328 369.69 107.536 364.458 94.6816L343.628 102.821C343.628 102.821 345.397 125.724 349.442 139.476C351.97 147.982 357.632 155.338 363.105 162.151C364.812 164.274 366.455 166.461 368.161 168.597C369.867 170.733 371.586 172.465 373.217 174.474C375.681 177.52 376.49 180.44 374.632 184.03L374.316 184.598C373.786 185.534 376.263 186.595 377.83 184.598C380.358 181.337 380.004 181.54 382.203 178.759C383.543 177.078 385.073 175.245 386.4 173.703C387.04 172.945 387.395 171.987 387.404 170.995C387.414 170.003 387.076 169.038 386.45 168.268Z" fill="white"/>
<path opacity="0.3" d="M381.356 161.683C378.051 165.226 374.382 168.412 370.41 171.187C370.954 171.794 371.485 172.451 372.028 173.033C376.004 170.346 379.616 167.156 382.771 163.541L381.356 161.683Z" fill="#B08E49"/>
<path opacity="0.3" d="M386.45 168.268L386.298 168.091C385.326 169.207 384.76 170.619 384.693 172.098C384.612 173.112 384.776 174.131 385.173 175.068L386.374 173.64C387.002 172.889 387.352 171.945 387.366 170.967C387.38 169.989 387.056 169.036 386.45 168.268Z" fill="#B08E49"/>
<path d="M340.316 68.2528C338.058 71.634 335.35 74.6914 332.265 77.3405C330.555 78.8148 328.68 80.0871 326.679 81.1324C325.627 81.6712 324.537 82.1317 323.418 82.5101L322.558 82.7881L322.28 82.864L321.686 83.0283C321.32 83.1151 320.948 83.1742 320.574 83.2052C319.507 83.2868 318.435 83.1885 317.401 82.9145C316.098 82.5445 314.848 82.0048 313.685 81.3093C312.749 80.7623 311.842 80.1674 310.968 79.5272C309.387 78.3517 307.877 77.0857 306.443 75.7353C303.678 73.1158 301.141 70.2658 298.859 67.2164C298.42 66.6223 298.202 65.8935 298.242 65.1557C298.283 64.4179 298.579 63.7174 299.081 63.175C299.583 62.6327 300.259 62.2826 300.991 62.1851C301.724 62.0876 302.467 62.2488 303.093 62.6409H303.195C306.177 64.5368 309.186 66.5339 312.118 68.316C313.609 69.1881 315.05 70.0729 316.479 70.7554C317.131 71.0968 317.802 71.4006 318.488 71.6654C318.916 71.8543 319.374 71.9656 319.841 71.9941C319.916 71.9941 319.841 71.9056 319.373 71.9182C319.226 71.9094 319.078 71.9094 318.931 71.9182L318.653 71.9814L319.07 71.7666C319.631 71.4644 320.176 71.131 320.7 70.7681C321.831 69.9706 322.888 69.0739 323.86 68.0885C326.068 65.7744 328.136 63.3307 330.053 60.7703C331.104 59.5952 332.555 58.8549 334.123 58.6948C335.691 58.5347 337.262 58.9663 338.528 59.9048C339.795 60.8434 340.664 62.2212 340.967 63.768C341.27 65.3147 340.984 66.9188 340.165 68.2655L340.316 68.2528Z" fill="#B08E49"/>
<path opacity="0.7" d="M340.316 68.2528C338.058 71.634 335.35 74.6914 332.265 77.3405C330.555 78.8148 328.68 80.0871 326.679 81.1324C325.627 81.6712 324.537 82.1317 323.418 82.5101L322.558 82.7881L322.28 82.864L321.686 83.0283C321.32 83.1151 320.948 83.1742 320.574 83.2052C319.507 83.2868 318.435 83.1885 317.401 82.9145C316.098 82.5445 314.848 82.0048 313.685 81.3093C312.749 80.7623 311.842 80.1674 310.968 79.5272C309.387 78.3517 307.877 77.0857 306.443 75.7353C303.678 73.1158 301.141 70.2658 298.859 67.2164C298.42 66.6223 298.202 65.8935 298.242 65.1557C298.283 64.4179 298.579 63.7174 299.081 63.175C299.583 62.6327 300.259 62.2826 300.991 62.1851C301.724 62.0876 302.467 62.2488 303.093 62.6409H303.195C306.177 64.5368 309.186 66.5339 312.118 68.316C313.609 69.1881 315.05 70.0729 316.479 70.7554C317.131 71.0968 317.802 71.4006 318.488 71.6654C318.916 71.8543 319.374 71.9656 319.841 71.9941C319.916 71.9941 319.841 71.9056 319.373 71.9182C319.226 71.9094 319.078 71.9094 318.931 71.9182L318.653 71.9814L319.07 71.7666C319.631 71.4644 320.176 71.131 320.7 70.7681C321.831 69.9706 322.888 69.0739 323.86 68.0885C326.068 65.7744 328.136 63.3307 330.053 60.7703C331.104 59.5952 332.555 58.8549 334.123 58.6948C335.691 58.5347 337.262 58.9663 338.528 59.9048C339.795 60.8434 340.664 62.2212 340.967 63.768C341.27 65.3147 340.984 66.9188 340.165 68.2655L340.316 68.2528Z" fill="white"/>
<path d="M294.118 59.9359L295.597 62.4638C295.597 62.4638 296.722 65.7753 298.985 66.382L305.127 64.3976L304.811 63.8794C304.028 62.6913 304.116 60.3783 304.382 58.4571C304.647 56.5359 303.661 56.4727 302.928 56.953C302.409 57.5506 302.044 58.2668 301.866 59.0385C301.565 58.6211 301.231 58.2281 300.868 57.863L298.997 55.9924C298.605 55.6088 298.082 55.3878 297.533 55.3738C296.985 55.3597 296.451 55.5536 296.04 55.9166L294.523 57.269C294.163 57.6018 293.927 58.047 293.854 58.5316C293.78 59.0162 293.873 59.5114 294.118 59.9359Z" fill="#B08E49"/>
<path opacity="0.7" d="M294.118 59.9359L295.597 62.4638C295.597 62.4638 296.722 65.7753 298.985 66.382L305.127 64.3976L304.811 63.8794C304.028 62.6913 304.116 60.3783 304.382 58.4571C304.647 56.5359 303.661 56.4727 302.928 56.953C302.409 57.5506 302.044 58.2668 301.866 59.0385C301.565 58.6211 301.231 58.2281 300.868 57.863L298.997 55.9924C298.605 55.6088 298.082 55.3878 297.533 55.3738C296.985 55.3597 296.451 55.5536 296.04 55.9166L294.523 57.269C294.163 57.6018 293.927 58.047 293.854 58.5316C293.78 59.0162 293.873 59.5114 294.118 59.9359Z" fill="white"/>
<path d="M351.477 50.8352C344.663 52.6412 338.137 55.3939 332.088 59.0129C331.144 59.6035 330.404 60.4685 329.965 61.4918C329.527 62.5152 329.412 63.648 329.636 64.7386C332.075 76.6702 337.624 92.6464 343.615 102.821L371.561 91.256C371.75 86.3267 364.963 70.3757 358.049 54.9557C356.81 52.1876 354.422 50.1274 351.477 50.8352Z" fill="#B08E49"/>
<path opacity="0.8" d="M351.477 50.8352C344.663 52.6412 338.137 55.3939 332.088 59.0129C331.144 59.6035 330.404 60.4685 329.965 61.4918C329.527 62.5152 329.412 63.648 329.636 64.7386C332.075 76.6702 337.624 92.6464 343.615 102.821L371.561 91.256C371.75 86.3267 364.963 70.3757 358.049 54.9557C356.81 52.1876 354.422 50.1274 351.477 50.8352Z" fill="white"/>
<path opacity="0.3" d="M362.384 64.7262L356.835 62.8682C358.099 66.1165 362.561 70.2243 365.683 72.6384C364.671 70.1105 363.546 67.4563 362.384 64.7262Z" fill="#B08E49"/>
<path d="M349.644 38.3224C347.331 33.9239 342.338 31.712 336.347 32.205C331.291 32.6347 326.817 37.7916 327.348 40.5723C327.878 43.3529 332.125 44.541 332.934 45.5016L329.433 48.0295C329.018 48.3289 328.668 48.7091 328.405 49.1472C328.141 49.5853 327.968 50.0723 327.897 50.5789C327.826 51.0854 327.859 51.6011 327.992 52.0948C328.126 52.5886 328.358 53.0502 328.675 53.4518C330.154 55.3225 332.1 57.2436 333.225 58.6593C342.907 58.4065 350.073 54.7158 352.664 51.1641C351.691 46.6645 351.893 42.6957 349.644 38.3224Z" fill="#B08E49"/>
<path opacity="0.8" d="M349.644 38.3224C347.331 33.9239 342.338 31.712 336.347 32.205C331.291 32.6347 326.817 37.7916 327.348 40.5723C327.878 43.3529 332.125 44.541 332.934 45.5016L329.433 48.0295C329.018 48.3289 328.668 48.7091 328.405 49.1472C328.141 49.5853 327.968 50.0723 327.897 50.5789C327.826 51.0854 327.859 51.6011 327.992 52.0948C328.126 52.5886 328.358 53.0502 328.675 53.4518C330.154 55.3225 332.1 57.2436 333.225 58.6593C342.907 58.4065 350.073 54.7158 352.664 51.1641C351.691 46.6645 351.893 42.6957 349.644 38.3224Z" fill="white"/>
<path d="M344.892 41.0528C345.579 42.8155 345.728 44.7424 345.321 46.5899C344.913 48.4375 343.967 50.1227 342.602 51.4326C341.236 52.7425 339.514 53.6183 337.651 53.9492C335.788 54.2801 333.869 54.0513 332.136 53.2918C330.403 52.5323 328.935 51.2761 327.916 49.682C326.897 48.0879 326.373 46.2274 326.411 44.3358C326.449 42.4443 327.047 40.6065 328.13 39.0547C329.212 37.503 330.73 36.3069 332.492 35.6178C334.857 34.6965 337.492 34.7513 339.816 35.7703C342.141 36.7893 343.966 38.6892 344.892 41.0528Z" fill="#263238"/>
<path d="M426.959 154.959C426.82 150.801 426.63 151.167 426.517 147.666C426.441 145.517 426.428 143.128 426.416 141.068C426.411 140.09 426.069 139.143 425.448 138.388C424.826 137.632 423.962 137.115 423.003 136.923C421.335 136.581 419.654 136.265 417.947 135.911C415.761 135.444 413.599 134.938 411.463 134.319C409.795 133.839 408.152 133.308 406.521 132.714C404.891 132.12 403.058 131.45 401.364 130.666C399.367 129.819 397.396 128.909 395.449 127.961C393.262 126.925 391.101 125.838 388.94 124.738C380.623 110.974 380.446 101.899 371.523 91.2563L352.361 99.927C352.361 99.927 366.442 124.902 376.022 135.494C381.546 141.586 390.204 144.342 397.926 146.339C403.5 147.767 409.15 148.867 414.8 149.916C416.999 150.32 419.388 150.472 421.284 151.786C422.687 152.862 423.649 154.413 423.989 156.147C424.073 156.501 424.149 156.855 424.216 157.209C424.457 158.27 427.048 157.462 426.959 154.959Z" fill="#B08E49"/>
<path opacity="0.8" d="M426.959 154.959C426.82 150.801 426.63 151.167 426.517 147.666C426.441 145.517 426.428 143.128 426.416 141.068C426.411 140.09 426.069 139.143 425.448 138.388C424.826 137.632 423.962 137.115 423.003 136.923C421.335 136.581 419.654 136.265 417.947 135.911C415.761 135.444 413.599 134.938 411.463 134.319C409.795 133.839 408.152 133.308 406.521 132.714C404.891 132.12 403.058 131.45 401.364 130.666C399.367 129.819 397.396 128.909 395.449 127.961C393.262 126.925 391.101 125.838 388.94 124.738C380.623 110.974 380.446 101.899 371.523 91.2563L352.361 99.927C352.361 99.927 366.442 124.902 376.022 135.494C381.546 141.586 390.204 144.342 397.926 146.339C403.5 147.767 409.15 148.867 414.8 149.916C416.999 150.32 419.388 150.472 421.284 151.786C422.687 152.862 423.649 154.413 423.989 156.147C424.073 156.501 424.149 156.855 424.216 157.209C424.457 158.27 427.048 157.462 426.959 154.959Z" fill="white"/>
<path opacity="0.3" d="M417.24 135.747C416.481 135.582 415.723 135.418 414.952 135.229C415.015 139.602 412.967 147.135 412.222 149.423L414.623 149.878C416.197 145.325 417.079 140.561 417.24 135.747Z" fill="#B08E49"/>
<path opacity="0.3" d="M426.467 141.068C426.463 140.091 426.123 139.146 425.504 138.391C424.884 137.636 424.024 137.117 423.067 136.922L421.803 136.682C422.006 138.119 422.741 139.427 423.863 140.348C424.584 141.015 425.449 141.507 426.391 141.788C426.467 141.561 426.467 141.308 426.467 141.068Z" fill="#B08E49"/>
<path d="M343.109 41.1284C343.615 43.0495 341.466 45.0592 339.76 43.4034C338.167 41.6959 336.424 40.135 334.552 38.7395C332.795 37.6399 335.134 35.7187 337.902 36.4644C339.083 36.7612 340.174 37.3408 341.081 38.1533C341.989 38.9658 342.685 39.9869 343.109 41.1284Z" fill="white"/>
<path d="M343.249 102.202C342.364 102.53 343.982 104.047 343.982 104.047C343.982 104.047 361.677 97.9929 372.421 91.7617C372.447 91.3844 372.382 91.0064 372.233 90.6591C372.083 90.3118 371.853 90.0051 371.561 89.7646C362.366 94.442 352.914 98.5943 343.249 102.202Z" fill="#B08E49"/>
<path opacity="0.5" d="M343.249 102.202C342.364 102.53 343.982 104.047 343.982 104.047C343.982 104.047 361.677 97.9929 372.421 91.7617C372.447 91.3844 372.382 91.0064 372.233 90.6591C372.083 90.3118 371.853 90.0051 371.561 89.7646C362.366 94.442 352.914 98.5943 343.249 102.202Z" fill="white"/>
<path d="M356.267 50.0012C359.756 51.7707 363.03 53.6287 366.379 55.6889C368.009 56.7254 369.627 57.7744 371.232 58.912C372.838 60.0495 374.43 61.2124 376.035 62.5269L376.63 63.0198L377.375 63.7023C377.82 64.0999 378.242 64.5219 378.639 64.9663C379.044 65.4086 379.385 65.8384 379.714 66.2302C380.042 66.622 380.396 67.0897 380.687 67.4941C381.865 69.119 382.953 70.8068 383.948 72.5499C385.907 75.9301 387.597 79.4589 389.003 83.1038C389.263 83.7925 389.277 84.5499 389.042 85.2473C388.806 85.9448 388.336 86.5392 387.712 86.9294C387.088 87.3197 386.348 87.4818 385.618 87.388C384.888 87.2943 384.213 86.9506 383.708 86.4153L383.644 86.3395C381.117 83.6473 378.677 80.8161 376.225 78.1744C373.773 75.5328 371.283 72.8532 369.223 71.6778C366.354 69.8956 363.156 68.1135 359.983 66.3692L350.428 61.0607C348.946 60.2763 347.837 58.9354 347.344 57.333C346.851 55.7307 347.015 53.9981 347.799 52.5164C348.583 51.0348 349.924 49.9254 351.527 49.4324C353.129 48.9393 354.862 49.103 356.343 49.8874L356.267 50.0012Z" fill="#B08E49"/>
<path opacity="0.8" d="M356.267 50.0012C359.756 51.7707 363.03 53.6287 366.379 55.6889C368.009 56.7254 369.627 57.7744 371.232 58.912C372.838 60.0495 374.43 61.2124 376.035 62.5269L376.63 63.0198L377.375 63.7023C377.82 64.0999 378.242 64.5219 378.639 64.9663C379.044 65.4086 379.385 65.8384 379.714 66.2302C380.042 66.622 380.396 67.0897 380.687 67.4941C381.865 69.119 382.953 70.8068 383.948 72.5499C385.907 75.9301 387.597 79.4589 389.003 83.1038C389.263 83.7925 389.277 84.5499 389.042 85.2473C388.806 85.9448 388.336 86.5392 387.712 86.9294C387.088 87.3197 386.348 87.4818 385.618 87.388C384.888 87.2943 384.213 86.9506 383.708 86.4153L383.644 86.3395C381.117 83.6473 378.677 80.8161 376.225 78.1744C373.773 75.5328 371.283 72.8532 369.223 71.6778C366.354 69.8956 363.156 68.1135 359.983 66.3692L350.428 61.0607C348.946 60.2763 347.837 58.9354 347.344 57.333C346.851 55.7307 347.015 53.9981 347.799 52.5164C348.583 51.0348 349.924 49.9254 351.527 49.4324C353.129 48.9393 354.862 49.103 356.343 49.8874L356.267 50.0012Z" fill="white"/>
<path d="M391.998 89.4105L390.924 86.7183C390.924 86.7183 390.33 83.2804 388.193 82.3198L381.874 83.3183L382.089 83.8745C382.67 85.1384 382.228 87.4514 381.659 89.2968C381.09 91.1421 382.051 91.3823 382.86 91.0157C383.315 90.8135 383.757 89.9919 384.237 89.1198C384.473 89.5592 384.739 89.9815 385.034 90.3838L386.588 92.5198C386.913 92.9625 387.393 93.2658 387.933 93.369C388.472 93.4722 389.03 93.3675 389.495 93.076L391.214 91.9763C391.617 91.701 391.913 91.297 392.056 90.8308C392.198 90.3645 392.178 89.8637 391.998 89.4105Z" fill="#B08E49"/>
<path opacity="0.8" d="M391.998 89.4105L390.924 86.7183C390.924 86.7183 390.33 83.2804 388.193 82.3198L381.874 83.3183L382.089 83.8745C382.67 85.1384 382.228 87.4514 381.659 89.2968C381.09 91.1421 382.051 91.3823 382.86 91.0157C383.315 90.8135 383.757 89.9919 384.237 89.1198C384.473 89.5592 384.739 89.9815 385.034 90.3838L386.588 92.5198C386.913 92.9625 387.393 93.2658 387.933 93.369C388.472 93.4722 389.03 93.3675 389.495 93.076L391.214 91.9763C391.617 91.701 391.913 91.297 392.056 90.8308C392.198 90.3645 392.178 89.8637 391.998 89.4105Z" fill="white"/>
<path opacity="0.3" d="M350.933 64.5366L349.391 64.663L339.924 87.5151C340.441 87.5523 340.961 87.5097 341.466 87.3887C341.466 87.3887 353.802 82.7879 357.531 81.069C355.028 75.8994 350.933 64.5366 350.933 64.5366Z" fill="#B08E49"/>
<path d="M333.655 70.5278C334.806 76.5014 336.941 82.2422 339.975 87.5151C344.601 85.9226 352.311 82.9144 356.052 81.1954C353.538 75.8046 351.306 70.2864 349.366 64.6631C345.41 64.9285 336.727 68.2527 333.655 70.5278Z" fill="white"/>
<path opacity="0.3" d="M343.046 75.4694C342.862 76.0875 342.498 76.6369 342.001 77.0481C341.504 77.4593 340.896 77.7138 340.254 77.7794C339.612 77.8451 338.965 77.7189 338.395 77.4168C337.825 77.1147 337.358 76.6504 337.051 76.0825C336.745 75.5146 336.615 74.8687 336.676 74.2264C336.737 73.5842 336.987 72.9746 337.395 72.4746C337.803 71.9746 338.349 71.6068 338.966 71.4177C339.583 71.2286 340.242 71.2266 340.86 71.4122C341.688 71.6607 342.383 72.2276 342.793 72.9883C343.203 73.749 343.294 74.6414 343.046 75.4694Z" fill="#B08E49"/>
<path opacity="0.6" d="M345.459 71.1218C345.41 71.3328 345.298 71.524 345.138 71.6702C344.979 71.8165 344.778 71.911 344.564 71.9413C344.349 71.9717 344.131 71.9365 343.936 71.8403C343.742 71.7441 343.582 71.5915 343.476 71.4025C343.37 71.2135 343.324 70.9968 343.343 70.7811C343.363 70.5653 343.447 70.3604 343.585 70.1934C343.723 70.0264 343.908 69.9049 344.116 69.8451C344.325 69.7852 344.546 69.7897 344.752 69.8579C345.008 69.9398 345.223 70.1158 345.355 70.3504C345.486 70.585 345.523 70.8607 345.459 71.1218Z" fill="#B08E49"/>
<path opacity="0.6" d="M348.291 70.0221C348.262 70.1687 348.202 70.3076 348.115 70.4297C348.029 70.5518 347.918 70.6545 347.79 70.7312C347.661 70.808 347.518 70.8571 347.37 70.8753C347.221 70.8936 347.071 70.8807 346.927 70.8374C346.784 70.7941 346.652 70.7213 346.538 70.6238C346.425 70.5263 346.333 70.4062 346.269 70.2712C346.204 70.1361 346.169 69.9891 346.164 69.8396C346.16 69.69 346.187 69.5413 346.244 69.4028C346.284 69.269 346.351 69.1446 346.439 69.0366C346.528 68.9286 346.637 68.8391 346.76 68.7733C346.884 68.7076 347.019 68.6668 347.158 68.6534C347.297 68.6399 347.437 68.6541 347.571 68.695C347.841 68.7769 348.069 68.9622 348.204 69.2106C348.339 69.459 348.37 69.7506 348.291 70.0221Z" fill="#B08E49"/>
<path opacity="0.5" d="M352.261 79.8682L340.569 84.4816L339.874 82.1812L351.553 77.5679L352.261 79.8682Z" fill="#B08E49"/>
<path opacity="0.2" d="M287.761 255.531C287.734 262.891 287.023 270.232 285.638 277.46C284.146 283.957 281.829 288.709 278.686 291.717C277.222 293.171 275.484 294.318 273.572 295.093C271.66 295.868 269.614 296.254 267.551 296.23C261.054 296.23 256.095 292.687 252.674 285.6C252.073 284.327 251.562 283.014 251.145 281.669C243.92 287.875 237.192 294.636 231.023 301.892L224.312 309.804C227.923 313.465 232.091 316.532 236.66 318.892C244.53 322.962 254.861 325.001 267.652 325.01C269.902 325.01 272.076 324.946 274.187 324.82C281.925 313.37 288.329 301.072 293.272 288.166L312.042 239.226L287.761 255.531Z" fill="black"/>
<path d="M118.558 322.305L140.677 344.424L202.61 286.068C181.262 277.915 139.754 301.058 118.558 322.305Z" fill="#263238"/>
<path d="M195.696 399.405C188.631 392.327 173.577 377.286 173.577 377.286L231.933 315.353C240.035 336.65 216.892 378.196 195.696 399.405Z" fill="#263238"/>
<path d="M280.354 259.992L304.483 213.467L257.957 237.621C243.013 245.371 229.214 255.154 216.955 266.691L137.643 341.352L176.61 380.32L251.271 301.007C262.813 288.745 272.601 274.942 280.354 259.992Z" fill="#B08E49"/>
<path opacity="0.6" d="M280.354 259.992L304.483 213.467L257.957 237.621C243.013 245.371 229.214 255.154 216.955 266.691L137.643 341.352L176.61 380.32L251.271 301.007C262.813 288.745 272.601 274.942 280.354 259.992Z" fill="white"/>
<path d="M230.808 303.447C239.813 303.447 247.113 296.147 247.113 287.142C247.113 278.137 239.813 270.837 230.808 270.837C221.803 270.837 214.503 278.137 214.503 287.142C214.503 296.147 221.803 303.447 230.808 303.447Z" fill="white"/>
<path d="M230.809 297.62C236.596 297.62 241.287 292.929 241.287 287.142C241.287 281.355 236.596 276.664 230.809 276.664C225.022 276.664 220.331 281.355 220.331 287.142C220.331 292.929 225.022 297.62 230.809 297.62Z" fill="#B08E49"/>
<path opacity="0.3" d="M189.794 366.315L151.636 328.157L182.88 298.758L219.193 335.083L189.794 366.315Z" fill="#B08E49"/>
<path d="M127.191 357.215C98.6255 359.528 89.1586 377.817 85.9229 402.123C84.2797 414.522 83.5467 427.073 73.1444 434.328C72.5186 434.753 72.0475 435.37 71.8015 436.085C71.5555 436.801 71.548 437.577 71.78 438.297C72.012 439.017 72.471 439.643 73.0884 440.08C73.7058 440.518 74.4483 440.743 75.2046 440.723C113.553 439.523 131.437 420.753 133.687 412.917C133.097 417.013 132.041 421.029 130.54 424.886C130.264 425.567 130.21 426.317 130.386 427.03C130.561 427.743 130.957 428.383 131.518 428.858C132.078 429.333 132.774 429.619 133.506 429.675C134.238 429.731 134.97 429.555 135.596 429.171C146.352 422.434 159.851 410.022 160.748 389.888C152.836 378.677 127.191 357.215 127.191 357.215Z" fill="#B08E49"/>
<path opacity="0.2" d="M127.191 357.215C98.6255 359.528 89.1586 377.817 85.9229 402.123C84.2797 414.522 83.5467 427.073 73.1444 434.328C72.5186 434.753 72.0475 435.37 71.8015 436.085C71.5555 436.801 71.548 437.577 71.78 438.297C72.012 439.017 72.471 439.643 73.0884 440.08C73.7058 440.518 74.4483 440.743 75.2046 440.723C113.553 439.523 131.437 420.753 133.687 412.917C133.097 417.013 132.041 421.029 130.54 424.886C130.264 425.567 130.21 426.317 130.386 427.03C130.561 427.743 130.957 428.383 131.518 428.858C132.078 429.333 132.774 429.619 133.506 429.675C134.238 429.731 134.97 429.555 135.596 429.171C146.352 422.434 159.851 410.022 160.748 389.888C152.836 378.677 127.191 357.215 127.191 357.215Z" fill="white"/>
<path d="M165.184 398.52L119.43 352.766L143.798 347.495L170.455 374.152L165.184 398.52Z" fill="#B08E49"/>
</svg>
