<svg width="59" height="46" viewBox="0 0 59 46" fill="none" xmlns="http://www.w3.org/2000/svg">
<path d="M58.0427 5.69409C55.9082 6.58608 53.5854 7.22804 51.1928 7.47806C53.6769 6.04843 55.5371 3.78984 56.4244 1.12605C54.0934 2.46936 51.5399 3.41131 48.877 3.91012C47.764 2.75748 46.4179 1.83923 44.9226 1.21259C43.4273 0.585958 41.8148 0.264364 40.1856 0.26785C33.5938 0.26785 28.2924 5.44407 28.2924 11.7961C28.2924 12.6881 28.404 13.5801 28.5854 14.4383C18.7151 13.9382 9.91211 9.37015 4.05971 2.37618C2.99334 4.14066 2.43453 6.14972 2.44141 8.19435C2.44141 12.1948 4.54102 15.7222 7.74275 17.7967C5.85592 17.7247 4.01327 17.2223 2.36468 16.3303V16.4722C2.36468 22.0742 6.45229 26.7166 11.9001 27.7842C10.8772 28.0416 9.82497 28.1733 8.76814 28.1762C7.99386 28.1762 7.26144 28.1018 6.52204 28.0005C8.02874 32.5685 12.4163 35.8864 17.6409 35.9946C13.5533 39.0962 8.43332 40.9207 2.87389 40.9207C1.8764 40.9207 0.955637 40.887 0 40.7788C5.27344 44.0562 11.5304 45.9483 18.2687 45.9483C40.1437 45.9483 52.1136 28.3924 52.1136 13.1543C52.1136 12.6543 52.1136 12.1542 52.0787 11.6542C54.3946 10.0121 56.4244 7.97812 58.0427 5.69409Z" fill="#9B9B9B"/>
</svg>
