<svg id="user_1" data-name="user 1" xmlns="http://www.w3.org/2000/svg" width="60" height="60" viewBox="0 0 60 60">
  <path id="Vector" d="M51.213,8.787A30,30,0,0,0,8.787,51.213,30,30,0,0,0,51.213,8.787ZM15.04,51.842a15.191,15.191,0,0,1,29.92,0,26.427,26.427,0,0,1-29.92,0Zm5.421-25.608A9.539,9.539,0,1,1,30,35.773a9.549,9.549,0,0,1-9.539-9.539ZM48.005,49.4A18.736,18.736,0,0,0,37.113,37.175a13.055,13.055,0,1,0-14.226,0A18.733,18.733,0,0,0,11.995,49.4a26.484,26.484,0,1,1,36.01,0Z" transform="translate(0)" fill="#fff"/>
</svg>
