<svg width="53" height="54" viewBox="0 0 53 54" fill="none" xmlns="http://www.w3.org/2000/svg">
<path fill-rule="evenodd" clip-rule="evenodd" d="M45.1935 8.4065C40.2991 3.50636 33.79 0.806585 26.8555 0.803711C12.5664 0.803711 0.937065 12.4327 0.931318 26.7257C0.929402 31.2947 2.12298 35.7548 4.39169 39.6862L0.713867 53.1196L14.4567 49.5145C18.2434 51.5802 22.5065 52.6687 26.845 52.67H26.8558C41.1434 52.67 52.7739 41.04 52.7794 26.7464C52.7822 19.8193 50.0882 13.3063 45.1935 8.4065ZM26.8555 48.2919H26.8466C22.9804 48.2903 19.1885 47.2513 15.8798 45.2885L15.0934 44.8213L6.93819 46.9607L9.11493 39.0095L8.60244 38.1943C6.44549 34.7637 5.30651 30.7985 5.30843 26.7273C5.3129 14.8473 14.9791 5.1821 26.8641 5.1821C32.6194 5.18401 38.0295 7.42813 42.0975 11.5009C46.1655 15.5737 48.4045 20.9873 48.4026 26.7448C48.3975 38.6257 38.7319 48.2919 26.8555 48.2919ZM38.6745 32.1543C38.0269 31.8298 34.8421 30.2633 34.2482 30.0468C33.6549 29.8306 33.2226 29.723 32.7912 30.3712C32.3591 31.0194 31.118 32.4787 30.7399 32.9107C30.3619 33.3431 29.9844 33.3973 29.3365 33.0729C28.6887 32.7488 26.6017 32.0645 24.1273 29.8578C22.2019 28.1402 20.902 26.019 20.5239 25.3708C20.1465 24.722 20.5207 24.4052 20.8081 24.0489C21.5093 23.1781 22.2115 22.2652 22.4273 21.8332C22.6435 21.4008 22.5352 21.0225 22.373 20.6984C22.2115 20.3743 20.916 17.1859 20.3764 15.8886C19.8502 14.626 19.3166 14.7965 18.9187 14.7767C18.5413 14.7579 18.1093 14.7541 17.6772 14.7541C17.2455 14.7541 16.5437 14.916 15.9498 15.5648C15.3562 16.2133 13.683 17.7802 13.683 20.9685C13.683 24.1568 16.0041 27.2369 16.3278 27.6692C16.6516 28.1016 20.8956 34.6442 27.3932 37.4497C28.9387 38.1177 30.145 38.5159 31.0861 38.8144C32.6379 39.3075 34.0496 39.2379 35.1659 39.0712C36.4106 38.885 38.9979 37.504 39.5382 35.9911C40.0778 34.4779 40.0778 33.1812 39.9156 32.9107C39.7541 32.6406 39.322 32.4787 38.6745 32.1543Z" fill="#9B9B9B"/>
</svg>
